<?xml version="1.0" encoding="utf-8" standalone="no"?>
<!DOCTYPE svg PUBLIC "-//W3C//DTD SVG 1.1//EN"
  "http://www.w3.org/Graphics/SVG/1.1/DTD/svg11.dtd">
<!-- Created with matplotlib (https://matplotlib.org/) -->
<svg height="576pt" version="1.1" viewBox="0 0 576 576" width="576pt" xmlns="http://www.w3.org/2000/svg" xmlns:xlink="http://www.w3.org/1999/xlink">
 <defs>
  <style type="text/css">
*{stroke-linecap:butt;stroke-linejoin:round;}
  </style>
 </defs>
 <g id="figure_1">
  <g id="patch_1">
   <path d="M 0 576 
L 576 576 
L 576 0 
L 0 0 
z
" style="fill:#ffffff;"/>
  </g>
  <g id="axes_1">
   <g id="patch_2">
    <path d="M 47.72 187.05125 
L 280.08 187.05125 
L 280.08 26.88 
L 47.72 26.88 
z
" style="fill:#ffffff;"/>
   </g>
   <g id="patch_3">
    <path clip-path="url(#p7f2d690017)" d="M 58.281818 187.05125 
L 83.133155 187.05125 
L 83.133155 94.47647 
L 58.281818 94.47647 
z
" style="fill:#ff7f0e;"/>
   </g>
   <g id="patch_4">
    <path clip-path="url(#p7f2d690017)" d="M 89.345989 187.05125 
L 114.197326 187.05125 
L 114.197326 42.058888 
L 89.345989 42.058888 
z
" style="fill:#2ca02c;"/>
   </g>
   <g id="patch_5">
    <path clip-path="url(#p7f2d690017)" d="M 120.41016 187.05125 
L 145.261497 187.05125 
L 145.261497 36.461756 
L 120.41016 36.461756 
z
" style="fill:#d62728;"/>
   </g>
   <g id="patch_6">
    <path clip-path="url(#p7f2d690017)" d="M 151.474332 187.05125 
L 176.325668 187.05125 
L 176.325668 38.460732 
L 151.474332 38.460732 
z
" style="fill:#9467bd;"/>
   </g>
   <g id="patch_7">
    <path clip-path="url(#p7f2d690017)" d="M 182.538503 187.05125 
L 207.38984 187.05125 
L 207.38984 41.614671 
L 182.538503 41.614671 
z
" style="fill:#8c564b;"/>
   </g>
   <g id="patch_8">
    <path clip-path="url(#p7f2d690017)" d="M 213.602674 187.05125 
L 238.454011 187.05125 
L 238.454011 36.106383 
L 213.602674 36.106383 
z
" style="fill:#e377c2;"/>
   </g>
   <g id="patch_9">
    <path clip-path="url(#p7f2d690017)" d="M 244.666845 187.05125 
L 269.518182 187.05125 
L 269.518182 34.507202 
L 244.666845 34.507202 
z
" style="fill:#7f7f7f;"/>
   </g>
   <g id="matplotlib.axis_1">
    <g id="xtick_1">
     <g id="line2d_1">
      <defs>
       <path d="M 0 0 
L 0 3.5 
" id="mc64f66ba54" style="stroke:#000000;stroke-width:0.8;"/>
      </defs>
      <g>
       <use style="stroke:#000000;stroke-width:0.8;" x="70.707487" xlink:href="#mc64f66ba54" y="187.05125"/>
      </g>
     </g>
     <g id="text_1">
      <!-- BERT multilingual -->
      <defs>
       <path d="M 19.671875 34.8125 
L 19.671875 8.109375 
L 35.5 8.109375 
Q 43.453125 8.109375 47.28125 11.40625 
Q 51.125 14.703125 51.125 21.484375 
Q 51.125 28.328125 47.28125 31.5625 
Q 43.453125 34.8125 35.5 34.8125 
z
M 19.671875 64.796875 
L 19.671875 42.828125 
L 34.28125 42.828125 
Q 41.5 42.828125 45.03125 45.53125 
Q 48.578125 48.25 48.578125 53.8125 
Q 48.578125 59.328125 45.03125 62.0625 
Q 41.5 64.796875 34.28125 64.796875 
z
M 9.8125 72.90625 
L 35.015625 72.90625 
Q 46.296875 72.90625 52.390625 68.21875 
Q 58.5 63.53125 58.5 54.890625 
Q 58.5 48.1875 55.375 44.234375 
Q 52.25 40.28125 46.1875 39.3125 
Q 53.46875 37.75 57.5 32.78125 
Q 61.53125 27.828125 61.53125 20.40625 
Q 61.53125 10.640625 54.890625 5.3125 
Q 48.25 0 35.984375 0 
L 9.8125 0 
z
" id="DejaVuSans-66"/>
       <path d="M 9.8125 72.90625 
L 55.90625 72.90625 
L 55.90625 64.59375 
L 19.671875 64.59375 
L 19.671875 43.015625 
L 54.390625 43.015625 
L 54.390625 34.71875 
L 19.671875 34.71875 
L 19.671875 8.296875 
L 56.78125 8.296875 
L 56.78125 0 
L 9.8125 0 
z
" id="DejaVuSans-69"/>
       <path d="M 44.390625 34.1875 
Q 47.5625 33.109375 50.5625 29.59375 
Q 53.5625 26.078125 56.59375 19.921875 
L 66.609375 0 
L 56 0 
L 46.6875 18.703125 
Q 43.0625 26.03125 39.671875 28.421875 
Q 36.28125 30.8125 30.421875 30.8125 
L 19.671875 30.8125 
L 19.671875 0 
L 9.8125 0 
L 9.8125 72.90625 
L 32.078125 72.90625 
Q 44.578125 72.90625 50.734375 67.671875 
Q 56.890625 62.453125 56.890625 51.90625 
Q 56.890625 45.015625 53.6875 40.46875 
Q 50.484375 35.9375 44.390625 34.1875 
z
M 19.671875 64.796875 
L 19.671875 38.921875 
L 32.078125 38.921875 
Q 39.203125 38.921875 42.84375 42.21875 
Q 46.484375 45.515625 46.484375 51.90625 
Q 46.484375 58.296875 42.84375 61.546875 
Q 39.203125 64.796875 32.078125 64.796875 
z
" id="DejaVuSans-82"/>
       <path d="M -0.296875 72.90625 
L 61.375 72.90625 
L 61.375 64.59375 
L 35.5 64.59375 
L 35.5 0 
L 25.59375 0 
L 25.59375 64.59375 
L -0.296875 64.59375 
z
" id="DejaVuSans-84"/>
       <path id="DejaVuSans-32"/>
       <path d="M 52 44.1875 
Q 55.375 50.25 60.0625 53.125 
Q 64.75 56 71.09375 56 
Q 79.640625 56 84.28125 50.015625 
Q 88.921875 44.046875 88.921875 33.015625 
L 88.921875 0 
L 79.890625 0 
L 79.890625 32.71875 
Q 79.890625 40.578125 77.09375 44.375 
Q 74.3125 48.1875 68.609375 48.1875 
Q 61.625 48.1875 57.5625 43.546875 
Q 53.515625 38.921875 53.515625 30.90625 
L 53.515625 0 
L 44.484375 0 
L 44.484375 32.71875 
Q 44.484375 40.625 41.703125 44.40625 
Q 38.921875 48.1875 33.109375 48.1875 
Q 26.21875 48.1875 22.15625 43.53125 
Q 18.109375 38.875 18.109375 30.90625 
L 18.109375 0 
L 9.078125 0 
L 9.078125 54.6875 
L 18.109375 54.6875 
L 18.109375 46.1875 
Q 21.1875 51.21875 25.484375 53.609375 
Q 29.78125 56 35.6875 56 
Q 41.65625 56 45.828125 52.96875 
Q 50 49.953125 52 44.1875 
z
" id="DejaVuSans-109"/>
       <path d="M 8.5 21.578125 
L 8.5 54.6875 
L 17.484375 54.6875 
L 17.484375 21.921875 
Q 17.484375 14.15625 20.5 10.265625 
Q 23.53125 6.390625 29.59375 6.390625 
Q 36.859375 6.390625 41.078125 11.03125 
Q 45.3125 15.671875 45.3125 23.6875 
L 45.3125 54.6875 
L 54.296875 54.6875 
L 54.296875 0 
L 45.3125 0 
L 45.3125 8.40625 
Q 42.046875 3.421875 37.71875 1 
Q 33.40625 -1.421875 27.6875 -1.421875 
Q 18.265625 -1.421875 13.375 4.4375 
Q 8.5 10.296875 8.5 21.578125 
z
M 31.109375 56 
z
" id="DejaVuSans-117"/>
       <path d="M 9.421875 75.984375 
L 18.40625 75.984375 
L 18.40625 0 
L 9.421875 0 
z
" id="DejaVuSans-108"/>
       <path d="M 18.3125 70.21875 
L 18.3125 54.6875 
L 36.8125 54.6875 
L 36.8125 47.703125 
L 18.3125 47.703125 
L 18.3125 18.015625 
Q 18.3125 11.328125 20.140625 9.421875 
Q 21.96875 7.515625 27.59375 7.515625 
L 36.8125 7.515625 
L 36.8125 0 
L 27.59375 0 
Q 17.1875 0 13.234375 3.875 
Q 9.28125 7.765625 9.28125 18.015625 
L 9.28125 47.703125 
L 2.6875 47.703125 
L 2.6875 54.6875 
L 9.28125 54.6875 
L 9.28125 70.21875 
z
" id="DejaVuSans-116"/>
       <path d="M 9.421875 54.6875 
L 18.40625 54.6875 
L 18.40625 0 
L 9.421875 0 
z
M 9.421875 75.984375 
L 18.40625 75.984375 
L 18.40625 64.59375 
L 9.421875 64.59375 
z
" id="DejaVuSans-105"/>
       <path d="M 54.890625 33.015625 
L 54.890625 0 
L 45.90625 0 
L 45.90625 32.71875 
Q 45.90625 40.484375 42.875 44.328125 
Q 39.84375 48.1875 33.796875 48.1875 
Q 26.515625 48.1875 22.3125 43.546875 
Q 18.109375 38.921875 18.109375 30.90625 
L 18.109375 0 
L 9.078125 0 
L 9.078125 54.6875 
L 18.109375 54.6875 
L 18.109375 46.1875 
Q 21.34375 51.125 25.703125 53.5625 
Q 30.078125 56 35.796875 56 
Q 45.21875 56 50.046875 50.171875 
Q 54.890625 44.34375 54.890625 33.015625 
z
" id="DejaVuSans-110"/>
       <path d="M 45.40625 27.984375 
Q 45.40625 37.75 41.375 43.109375 
Q 37.359375 48.484375 30.078125 48.484375 
Q 22.859375 48.484375 18.828125 43.109375 
Q 14.796875 37.75 14.796875 27.984375 
Q 14.796875 18.265625 18.828125 12.890625 
Q 22.859375 7.515625 30.078125 7.515625 
Q 37.359375 7.515625 41.375 12.890625 
Q 45.40625 18.265625 45.40625 27.984375 
z
M 54.390625 6.78125 
Q 54.390625 -7.171875 48.1875 -13.984375 
Q 42 -20.796875 29.203125 -20.796875 
Q 24.46875 -20.796875 20.265625 -20.09375 
Q 16.0625 -19.390625 12.109375 -17.921875 
L 12.109375 -9.1875 
Q 16.0625 -11.328125 19.921875 -12.34375 
Q 23.78125 -13.375 27.78125 -13.375 
Q 36.625 -13.375 41.015625 -8.765625 
Q 45.40625 -4.15625 45.40625 5.171875 
L 45.40625 9.625 
Q 42.625 4.78125 38.28125 2.390625 
Q 33.9375 0 27.875 0 
Q 17.828125 0 11.671875 7.65625 
Q 5.515625 15.328125 5.515625 27.984375 
Q 5.515625 40.671875 11.671875 48.328125 
Q 17.828125 56 27.875 56 
Q 33.9375 56 38.28125 53.609375 
Q 42.625 51.21875 45.40625 46.390625 
L 45.40625 54.6875 
L 54.390625 54.6875 
z
" id="DejaVuSans-103"/>
       <path d="M 34.28125 27.484375 
Q 23.390625 27.484375 19.1875 25 
Q 14.984375 22.515625 14.984375 16.5 
Q 14.984375 11.71875 18.140625 8.90625 
Q 21.296875 6.109375 26.703125 6.109375 
Q 34.1875 6.109375 38.703125 11.40625 
Q 43.21875 16.703125 43.21875 25.484375 
L 43.21875 27.484375 
z
M 52.203125 31.203125 
L 52.203125 0 
L 43.21875 0 
L 43.21875 8.296875 
Q 40.140625 3.328125 35.546875 0.953125 
Q 30.953125 -1.421875 24.3125 -1.421875 
Q 15.921875 -1.421875 10.953125 3.296875 
Q 6 8.015625 6 15.921875 
Q 6 25.140625 12.171875 29.828125 
Q 18.359375 34.515625 30.609375 34.515625 
L 43.21875 34.515625 
L 43.21875 35.40625 
Q 43.21875 41.609375 39.140625 45 
Q 35.0625 48.390625 27.6875 48.390625 
Q 23 48.390625 18.546875 47.265625 
Q 14.109375 46.140625 10.015625 43.890625 
L 10.015625 52.203125 
Q 14.9375 54.109375 19.578125 55.046875 
Q 24.21875 56 28.609375 56 
Q 40.484375 56 46.34375 49.84375 
Q 52.203125 43.703125 52.203125 31.203125 
z
" id="DejaVuSans-97"/>
      </defs>
      <g transform="translate(73.466862 282.495)rotate(-90)scale(0.1 -0.1)">
       <use xlink:href="#DejaVuSans-66"/>
       <use x="68.603516" xlink:href="#DejaVuSans-69"/>
       <use x="131.787109" xlink:href="#DejaVuSans-82"/>
       <use x="201.160156" xlink:href="#DejaVuSans-84"/>
       <use x="262.244141" xlink:href="#DejaVuSans-32"/>
       <use x="294.03125" xlink:href="#DejaVuSans-109"/>
       <use x="391.443359" xlink:href="#DejaVuSans-117"/>
       <use x="454.822266" xlink:href="#DejaVuSans-108"/>
       <use x="482.605469" xlink:href="#DejaVuSans-116"/>
       <use x="521.814453" xlink:href="#DejaVuSans-105"/>
       <use x="549.597656" xlink:href="#DejaVuSans-108"/>
       <use x="577.380859" xlink:href="#DejaVuSans-105"/>
       <use x="605.164062" xlink:href="#DejaVuSans-110"/>
       <use x="668.542969" xlink:href="#DejaVuSans-103"/>
       <use x="732.019531" xlink:href="#DejaVuSans-117"/>
       <use x="795.398438" xlink:href="#DejaVuSans-97"/>
       <use x="856.677734" xlink:href="#DejaVuSans-108"/>
      </g>
     </g>
    </g>
    <g id="xtick_2">
     <g id="line2d_2">
      <g>
       <use style="stroke:#000000;stroke-width:0.8;" x="101.771658" xlink:href="#mc64f66ba54" y="187.05125"/>
      </g>
     </g>
     <g id="text_2">
      <!-- BOREP -->
      <defs>
       <path d="M 39.40625 66.21875 
Q 28.65625 66.21875 22.328125 58.203125 
Q 16.015625 50.203125 16.015625 36.375 
Q 16.015625 22.609375 22.328125 14.59375 
Q 28.65625 6.59375 39.40625 6.59375 
Q 50.140625 6.59375 56.421875 14.59375 
Q 62.703125 22.609375 62.703125 36.375 
Q 62.703125 50.203125 56.421875 58.203125 
Q 50.140625 66.21875 39.40625 66.21875 
z
M 39.40625 74.21875 
Q 54.734375 74.21875 63.90625 63.9375 
Q 73.09375 53.65625 73.09375 36.375 
Q 73.09375 19.140625 63.90625 8.859375 
Q 54.734375 -1.421875 39.40625 -1.421875 
Q 24.03125 -1.421875 14.8125 8.828125 
Q 5.609375 19.09375 5.609375 36.375 
Q 5.609375 53.65625 14.8125 63.9375 
Q 24.03125 74.21875 39.40625 74.21875 
z
" id="DejaVuSans-79"/>
       <path d="M 19.671875 64.796875 
L 19.671875 37.40625 
L 32.078125 37.40625 
Q 38.96875 37.40625 42.71875 40.96875 
Q 46.484375 44.53125 46.484375 51.125 
Q 46.484375 57.671875 42.71875 61.234375 
Q 38.96875 64.796875 32.078125 64.796875 
z
M 9.8125 72.90625 
L 32.078125 72.90625 
Q 44.34375 72.90625 50.609375 67.359375 
Q 56.890625 61.8125 56.890625 51.125 
Q 56.890625 40.328125 50.609375 34.8125 
Q 44.34375 29.296875 32.078125 29.296875 
L 19.671875 29.296875 
L 19.671875 0 
L 9.8125 0 
z
" id="DejaVuSans-80"/>
      </defs>
      <g transform="translate(104.531033 228.079375)rotate(-90)scale(0.1 -0.1)">
       <use xlink:href="#DejaVuSans-66"/>
       <use x="68.587891" xlink:href="#DejaVuSans-79"/>
       <use x="147.298828" xlink:href="#DejaVuSans-82"/>
       <use x="216.78125" xlink:href="#DejaVuSans-69"/>
       <use x="279.964844" xlink:href="#DejaVuSans-80"/>
      </g>
     </g>
    </g>
    <g id="xtick_3">
     <g id="line2d_3">
      <g>
       <use style="stroke:#000000;stroke-width:0.8;" x="132.835829" xlink:href="#mc64f66ba54" y="187.05125"/>
      </g>
     </g>
     <g id="text_3">
      <!-- LASER -->
      <defs>
       <path d="M 9.8125 72.90625 
L 19.671875 72.90625 
L 19.671875 8.296875 
L 55.171875 8.296875 
L 55.171875 0 
L 9.8125 0 
z
" id="DejaVuSans-76"/>
       <path d="M 34.1875 63.1875 
L 20.796875 26.90625 
L 47.609375 26.90625 
z
M 28.609375 72.90625 
L 39.796875 72.90625 
L 67.578125 0 
L 57.328125 0 
L 50.6875 18.703125 
L 17.828125 18.703125 
L 11.1875 0 
L 0.78125 0 
z
" id="DejaVuSans-65"/>
       <path d="M 53.515625 70.515625 
L 53.515625 60.890625 
Q 47.90625 63.578125 42.921875 64.890625 
Q 37.9375 66.21875 33.296875 66.21875 
Q 25.25 66.21875 20.875 63.09375 
Q 16.5 59.96875 16.5 54.203125 
Q 16.5 49.359375 19.40625 46.890625 
Q 22.3125 44.4375 30.421875 42.921875 
L 36.375 41.703125 
Q 47.40625 39.59375 52.65625 34.296875 
Q 57.90625 29 57.90625 20.125 
Q 57.90625 9.515625 50.796875 4.046875 
Q 43.703125 -1.421875 29.984375 -1.421875 
Q 24.8125 -1.421875 18.96875 -0.25 
Q 13.140625 0.921875 6.890625 3.21875 
L 6.890625 13.375 
Q 12.890625 10.015625 18.65625 8.296875 
Q 24.421875 6.59375 29.984375 6.59375 
Q 38.421875 6.59375 43.015625 9.90625 
Q 47.609375 13.234375 47.609375 19.390625 
Q 47.609375 24.75 44.3125 27.78125 
Q 41.015625 30.8125 33.5 32.328125 
L 27.484375 33.5 
Q 16.453125 35.6875 11.515625 40.375 
Q 6.59375 45.0625 6.59375 53.421875 
Q 6.59375 63.09375 13.40625 68.65625 
Q 20.21875 74.21875 32.171875 74.21875 
Q 37.3125 74.21875 42.625 73.28125 
Q 47.953125 72.359375 53.515625 70.515625 
z
" id="DejaVuSans-83"/>
      </defs>
      <g transform="translate(135.595204 226.0825)rotate(-90)scale(0.1 -0.1)">
       <use xlink:href="#DejaVuSans-76"/>
       <use x="55.744141" xlink:href="#DejaVuSans-65"/>
       <use x="124.152344" xlink:href="#DejaVuSans-83"/>
       <use x="187.628906" xlink:href="#DejaVuSans-69"/>
       <use x="250.8125" xlink:href="#DejaVuSans-82"/>
      </g>
     </g>
    </g>
    <g id="xtick_4">
     <g id="line2d_4">
      <g>
       <use style="stroke:#000000;stroke-width:0.8;" x="163.9" xlink:href="#mc64f66ba54" y="187.05125"/>
      </g>
     </g>
     <g id="text_4">
      <!-- Pooled FastText -->
      <defs>
       <path d="M 30.609375 48.390625 
Q 23.390625 48.390625 19.1875 42.75 
Q 14.984375 37.109375 14.984375 27.296875 
Q 14.984375 17.484375 19.15625 11.84375 
Q 23.34375 6.203125 30.609375 6.203125 
Q 37.796875 6.203125 41.984375 11.859375 
Q 46.1875 17.53125 46.1875 27.296875 
Q 46.1875 37.015625 41.984375 42.703125 
Q 37.796875 48.390625 30.609375 48.390625 
z
M 30.609375 56 
Q 42.328125 56 49.015625 48.375 
Q 55.71875 40.765625 55.71875 27.296875 
Q 55.71875 13.875 49.015625 6.21875 
Q 42.328125 -1.421875 30.609375 -1.421875 
Q 18.84375 -1.421875 12.171875 6.21875 
Q 5.515625 13.875 5.515625 27.296875 
Q 5.515625 40.765625 12.171875 48.375 
Q 18.84375 56 30.609375 56 
z
" id="DejaVuSans-111"/>
       <path d="M 56.203125 29.59375 
L 56.203125 25.203125 
L 14.890625 25.203125 
Q 15.484375 15.921875 20.484375 11.0625 
Q 25.484375 6.203125 34.421875 6.203125 
Q 39.59375 6.203125 44.453125 7.46875 
Q 49.3125 8.734375 54.109375 11.28125 
L 54.109375 2.78125 
Q 49.265625 0.734375 44.1875 -0.34375 
Q 39.109375 -1.421875 33.890625 -1.421875 
Q 20.796875 -1.421875 13.15625 6.1875 
Q 5.515625 13.8125 5.515625 26.8125 
Q 5.515625 40.234375 12.765625 48.109375 
Q 20.015625 56 32.328125 56 
Q 43.359375 56 49.78125 48.890625 
Q 56.203125 41.796875 56.203125 29.59375 
z
M 47.21875 32.234375 
Q 47.125 39.59375 43.09375 43.984375 
Q 39.0625 48.390625 32.421875 48.390625 
Q 24.90625 48.390625 20.390625 44.140625 
Q 15.875 39.890625 15.1875 32.171875 
z
" id="DejaVuSans-101"/>
       <path d="M 45.40625 46.390625 
L 45.40625 75.984375 
L 54.390625 75.984375 
L 54.390625 0 
L 45.40625 0 
L 45.40625 8.203125 
Q 42.578125 3.328125 38.25 0.953125 
Q 33.9375 -1.421875 27.875 -1.421875 
Q 17.96875 -1.421875 11.734375 6.484375 
Q 5.515625 14.40625 5.515625 27.296875 
Q 5.515625 40.1875 11.734375 48.09375 
Q 17.96875 56 27.875 56 
Q 33.9375 56 38.25 53.625 
Q 42.578125 51.265625 45.40625 46.390625 
z
M 14.796875 27.296875 
Q 14.796875 17.390625 18.875 11.75 
Q 22.953125 6.109375 30.078125 6.109375 
Q 37.203125 6.109375 41.296875 11.75 
Q 45.40625 17.390625 45.40625 27.296875 
Q 45.40625 37.203125 41.296875 42.84375 
Q 37.203125 48.484375 30.078125 48.484375 
Q 22.953125 48.484375 18.875 42.84375 
Q 14.796875 37.203125 14.796875 27.296875 
z
" id="DejaVuSans-100"/>
       <path d="M 9.8125 72.90625 
L 51.703125 72.90625 
L 51.703125 64.59375 
L 19.671875 64.59375 
L 19.671875 43.109375 
L 48.578125 43.109375 
L 48.578125 34.8125 
L 19.671875 34.8125 
L 19.671875 0 
L 9.8125 0 
z
" id="DejaVuSans-70"/>
       <path d="M 44.28125 53.078125 
L 44.28125 44.578125 
Q 40.484375 46.53125 36.375 47.5 
Q 32.28125 48.484375 27.875 48.484375 
Q 21.1875 48.484375 17.84375 46.4375 
Q 14.5 44.390625 14.5 40.28125 
Q 14.5 37.15625 16.890625 35.375 
Q 19.28125 33.59375 26.515625 31.984375 
L 29.59375 31.296875 
Q 39.15625 29.25 43.1875 25.515625 
Q 47.21875 21.78125 47.21875 15.09375 
Q 47.21875 7.46875 41.1875 3.015625 
Q 35.15625 -1.421875 24.609375 -1.421875 
Q 20.21875 -1.421875 15.453125 -0.5625 
Q 10.6875 0.296875 5.421875 2 
L 5.421875 11.28125 
Q 10.40625 8.6875 15.234375 7.390625 
Q 20.0625 6.109375 24.8125 6.109375 
Q 31.15625 6.109375 34.5625 8.28125 
Q 37.984375 10.453125 37.984375 14.40625 
Q 37.984375 18.0625 35.515625 20.015625 
Q 33.0625 21.96875 24.703125 23.78125 
L 21.578125 24.515625 
Q 13.234375 26.265625 9.515625 29.90625 
Q 5.8125 33.546875 5.8125 39.890625 
Q 5.8125 47.609375 11.28125 51.796875 
Q 16.75 56 26.8125 56 
Q 31.78125 56 36.171875 55.265625 
Q 40.578125 54.546875 44.28125 53.078125 
z
" id="DejaVuSans-115"/>
       <path d="M 54.890625 54.6875 
L 35.109375 28.078125 
L 55.90625 0 
L 45.3125 0 
L 29.390625 21.484375 
L 13.484375 0 
L 2.875 0 
L 24.125 28.609375 
L 4.6875 54.6875 
L 15.28125 54.6875 
L 29.78125 35.203125 
L 44.28125 54.6875 
z
" id="DejaVuSans-120"/>
      </defs>
      <g transform="translate(166.659375 273.83875)rotate(-90)scale(0.1 -0.1)">
       <use xlink:href="#DejaVuSans-80"/>
       <use x="60.255859" xlink:href="#DejaVuSans-111"/>
       <use x="121.4375" xlink:href="#DejaVuSans-111"/>
       <use x="182.619141" xlink:href="#DejaVuSans-108"/>
       <use x="210.402344" xlink:href="#DejaVuSans-101"/>
       <use x="271.925781" xlink:href="#DejaVuSans-100"/>
       <use x="335.402344" xlink:href="#DejaVuSans-32"/>
       <use x="367.189453" xlink:href="#DejaVuSans-70"/>
       <use x="424.568359" xlink:href="#DejaVuSans-97"/>
       <use x="485.847656" xlink:href="#DejaVuSans-115"/>
       <use x="537.947266" xlink:href="#DejaVuSans-116"/>
       <use x="577.15625" xlink:href="#DejaVuSans-84"/>
       <use x="637.974609" xlink:href="#DejaVuSans-101"/>
       <use x="699.482422" xlink:href="#DejaVuSans-120"/>
       <use x="758.662109" xlink:href="#DejaVuSans-116"/>
      </g>
     </g>
    </g>
    <g id="xtick_5">
     <g id="line2d_5">
      <g>
       <use style="stroke:#000000;stroke-width:0.8;" x="194.964171" xlink:href="#mc64f66ba54" y="187.05125"/>
      </g>
     </g>
     <g id="text_5">
      <!-- Pooled word2vec -->
      <defs>
       <path d="M 4.203125 54.6875 
L 13.1875 54.6875 
L 24.421875 12.015625 
L 35.59375 54.6875 
L 46.1875 54.6875 
L 57.421875 12.015625 
L 68.609375 54.6875 
L 77.59375 54.6875 
L 63.28125 0 
L 52.6875 0 
L 40.921875 44.828125 
L 29.109375 0 
L 18.5 0 
z
" id="DejaVuSans-119"/>
       <path d="M 41.109375 46.296875 
Q 39.59375 47.171875 37.8125 47.578125 
Q 36.03125 48 33.890625 48 
Q 26.265625 48 22.1875 43.046875 
Q 18.109375 38.09375 18.109375 28.8125 
L 18.109375 0 
L 9.078125 0 
L 9.078125 54.6875 
L 18.109375 54.6875 
L 18.109375 46.1875 
Q 20.953125 51.171875 25.484375 53.578125 
Q 30.03125 56 36.53125 56 
Q 37.453125 56 38.578125 55.875 
Q 39.703125 55.765625 41.0625 55.515625 
z
" id="DejaVuSans-114"/>
       <path d="M 19.1875 8.296875 
L 53.609375 8.296875 
L 53.609375 0 
L 7.328125 0 
L 7.328125 8.296875 
Q 12.9375 14.109375 22.625 23.890625 
Q 32.328125 33.6875 34.8125 36.53125 
Q 39.546875 41.84375 41.421875 45.53125 
Q 43.3125 49.21875 43.3125 52.78125 
Q 43.3125 58.59375 39.234375 62.25 
Q 35.15625 65.921875 28.609375 65.921875 
Q 23.96875 65.921875 18.8125 64.3125 
Q 13.671875 62.703125 7.8125 59.421875 
L 7.8125 69.390625 
Q 13.765625 71.78125 18.9375 73 
Q 24.125 74.21875 28.421875 74.21875 
Q 39.75 74.21875 46.484375 68.546875 
Q 53.21875 62.890625 53.21875 53.421875 
Q 53.21875 48.921875 51.53125 44.890625 
Q 49.859375 40.875 45.40625 35.40625 
Q 44.1875 33.984375 37.640625 27.21875 
Q 31.109375 20.453125 19.1875 8.296875 
z
" id="DejaVuSans-50"/>
       <path d="M 2.984375 54.6875 
L 12.5 54.6875 
L 29.59375 8.796875 
L 46.6875 54.6875 
L 56.203125 54.6875 
L 35.6875 0 
L 23.484375 0 
z
" id="DejaVuSans-118"/>
       <path d="M 48.78125 52.59375 
L 48.78125 44.1875 
Q 44.96875 46.296875 41.140625 47.34375 
Q 37.3125 48.390625 33.40625 48.390625 
Q 24.65625 48.390625 19.8125 42.84375 
Q 14.984375 37.3125 14.984375 27.296875 
Q 14.984375 17.28125 19.8125 11.734375 
Q 24.65625 6.203125 33.40625 6.203125 
Q 37.3125 6.203125 41.140625 7.25 
Q 44.96875 8.296875 48.78125 10.40625 
L 48.78125 2.09375 
Q 45.015625 0.34375 40.984375 -0.53125 
Q 36.96875 -1.421875 32.421875 -1.421875 
Q 20.0625 -1.421875 12.78125 6.34375 
Q 5.515625 14.109375 5.515625 27.296875 
Q 5.515625 40.671875 12.859375 48.328125 
Q 20.21875 56 33.015625 56 
Q 37.15625 56 41.109375 55.140625 
Q 45.0625 54.296875 48.78125 52.59375 
z
" id="DejaVuSans-99"/>
      </defs>
      <g transform="translate(197.723546 279.459062)rotate(-90)scale(0.1 -0.1)">
       <use xlink:href="#DejaVuSans-80"/>
       <use x="60.255859" xlink:href="#DejaVuSans-111"/>
       <use x="121.4375" xlink:href="#DejaVuSans-111"/>
       <use x="182.619141" xlink:href="#DejaVuSans-108"/>
       <use x="210.402344" xlink:href="#DejaVuSans-101"/>
       <use x="271.925781" xlink:href="#DejaVuSans-100"/>
       <use x="335.402344" xlink:href="#DejaVuSans-32"/>
       <use x="367.189453" xlink:href="#DejaVuSans-119"/>
       <use x="448.976562" xlink:href="#DejaVuSans-111"/>
       <use x="510.158203" xlink:href="#DejaVuSans-114"/>
       <use x="551.255859" xlink:href="#DejaVuSans-100"/>
       <use x="614.732422" xlink:href="#DejaVuSans-50"/>
       <use x="678.355469" xlink:href="#DejaVuSans-118"/>
       <use x="737.535156" xlink:href="#DejaVuSans-101"/>
       <use x="799.058594" xlink:href="#DejaVuSans-99"/>
      </g>
     </g>
    </g>
    <g id="xtick_6">
     <g id="line2d_6">
      <g>
       <use style="stroke:#000000;stroke-width:0.8;" x="226.028342" xlink:href="#mc64f66ba54" y="187.05125"/>
      </g>
     </g>
     <g id="text_6">
      <!-- SIF -->
      <defs>
       <path d="M 9.8125 72.90625 
L 19.671875 72.90625 
L 19.671875 0 
L 9.8125 0 
z
" id="DejaVuSans-73"/>
      </defs>
      <g transform="translate(228.787717 209.10125)rotate(-90)scale(0.1 -0.1)">
       <use xlink:href="#DejaVuSans-83"/>
       <use x="63.476562" xlink:href="#DejaVuSans-73"/>
       <use x="92.96875" xlink:href="#DejaVuSans-70"/>
      </g>
     </g>
    </g>
    <g id="xtick_7">
     <g id="line2d_7">
      <g>
       <use style="stroke:#000000;stroke-width:0.8;" x="257.092513" xlink:href="#mc64f66ba54" y="187.05125"/>
      </g>
     </g>
     <g id="text_7">
      <!-- TF-IDF -->
      <defs>
       <path d="M 4.890625 31.390625 
L 31.203125 31.390625 
L 31.203125 23.390625 
L 4.890625 23.390625 
z
" id="DejaVuSans-45"/>
       <path d="M 19.671875 64.796875 
L 19.671875 8.109375 
L 31.59375 8.109375 
Q 46.6875 8.109375 53.6875 14.9375 
Q 60.6875 21.78125 60.6875 36.53125 
Q 60.6875 51.171875 53.6875 57.984375 
Q 46.6875 64.796875 31.59375 64.796875 
z
M 9.8125 72.90625 
L 30.078125 72.90625 
Q 51.265625 72.90625 61.171875 64.09375 
Q 71.09375 55.28125 71.09375 36.53125 
Q 71.09375 17.671875 61.125 8.828125 
Q 51.171875 0 30.078125 0 
L 9.8125 0 
z
" id="DejaVuSans-68"/>
      </defs>
      <g transform="translate(259.851888 225.92)rotate(-90)scale(0.1 -0.1)">
       <use xlink:href="#DejaVuSans-84"/>
       <use x="61.083984" xlink:href="#DejaVuSans-70"/>
       <use x="118.603516" xlink:href="#DejaVuSans-45"/>
       <use x="154.6875" xlink:href="#DejaVuSans-73"/>
       <use x="184.179688" xlink:href="#DejaVuSans-68"/>
       <use x="261.181641" xlink:href="#DejaVuSans-70"/>
      </g>
     </g>
    </g>
   </g>
   <g id="matplotlib.axis_2">
    <g id="ytick_1">
     <g id="line2d_8">
      <defs>
       <path d="M 0 0 
L -3.5 0 
" id="m32eb5c9432" style="stroke:#000000;stroke-width:0.8;"/>
      </defs>
      <g>
       <use style="stroke:#000000;stroke-width:0.8;" x="47.72" xlink:href="#m32eb5c9432" y="187.05125"/>
      </g>
     </g>
     <g id="text_8">
      <!-- 0.0 -->
      <defs>
       <path d="M 31.78125 66.40625 
Q 24.171875 66.40625 20.328125 58.90625 
Q 16.5 51.421875 16.5 36.375 
Q 16.5 21.390625 20.328125 13.890625 
Q 24.171875 6.390625 31.78125 6.390625 
Q 39.453125 6.390625 43.28125 13.890625 
Q 47.125 21.390625 47.125 36.375 
Q 47.125 51.421875 43.28125 58.90625 
Q 39.453125 66.40625 31.78125 66.40625 
z
M 31.78125 74.21875 
Q 44.046875 74.21875 50.515625 64.515625 
Q 56.984375 54.828125 56.984375 36.375 
Q 56.984375 17.96875 50.515625 8.265625 
Q 44.046875 -1.421875 31.78125 -1.421875 
Q 19.53125 -1.421875 13.0625 8.265625 
Q 6.59375 17.96875 6.59375 36.375 
Q 6.59375 54.828125 13.0625 64.515625 
Q 19.53125 74.21875 31.78125 74.21875 
z
" id="DejaVuSans-48"/>
       <path d="M 10.6875 12.40625 
L 21 12.40625 
L 21 0 
L 10.6875 0 
z
" id="DejaVuSans-46"/>
      </defs>
      <g transform="translate(24.816875 190.850469)scale(0.1 -0.1)">
       <use xlink:href="#DejaVuSans-48"/>
       <use x="63.623047" xlink:href="#DejaVuSans-46"/>
       <use x="95.410156" xlink:href="#DejaVuSans-48"/>
      </g>
     </g>
    </g>
    <g id="ytick_2">
     <g id="line2d_9">
      <g>
       <use style="stroke:#000000;stroke-width:0.8;" x="47.72" xlink:href="#m32eb5c9432" y="161.784199"/>
      </g>
     </g>
     <g id="text_9">
      <!-- 0.1 -->
      <defs>
       <path d="M 12.40625 8.296875 
L 28.515625 8.296875 
L 28.515625 63.921875 
L 10.984375 60.40625 
L 10.984375 69.390625 
L 28.421875 72.90625 
L 38.28125 72.90625 
L 38.28125 8.296875 
L 54.390625 8.296875 
L 54.390625 0 
L 12.40625 0 
z
" id="DejaVuSans-49"/>
      </defs>
      <g transform="translate(24.816875 165.583417)scale(0.1 -0.1)">
       <use xlink:href="#DejaVuSans-48"/>
       <use x="63.623047" xlink:href="#DejaVuSans-46"/>
       <use x="95.410156" xlink:href="#DejaVuSans-49"/>
      </g>
     </g>
    </g>
    <g id="ytick_3">
     <g id="line2d_10">
      <g>
       <use style="stroke:#000000;stroke-width:0.8;" x="47.72" xlink:href="#m32eb5c9432" y="136.517147"/>
      </g>
     </g>
     <g id="text_10">
      <!-- 0.2 -->
      <g transform="translate(24.816875 140.316366)scale(0.1 -0.1)">
       <use xlink:href="#DejaVuSans-48"/>
       <use x="63.623047" xlink:href="#DejaVuSans-46"/>
       <use x="95.410156" xlink:href="#DejaVuSans-50"/>
      </g>
     </g>
    </g>
    <g id="ytick_4">
     <g id="line2d_11">
      <g>
       <use style="stroke:#000000;stroke-width:0.8;" x="47.72" xlink:href="#m32eb5c9432" y="111.250096"/>
      </g>
     </g>
     <g id="text_11">
      <!-- 0.3 -->
      <defs>
       <path d="M 40.578125 39.3125 
Q 47.65625 37.796875 51.625 33 
Q 55.609375 28.21875 55.609375 21.1875 
Q 55.609375 10.40625 48.1875 4.484375 
Q 40.765625 -1.421875 27.09375 -1.421875 
Q 22.515625 -1.421875 17.65625 -0.515625 
Q 12.796875 0.390625 7.625 2.203125 
L 7.625 11.71875 
Q 11.71875 9.328125 16.59375 8.109375 
Q 21.484375 6.890625 26.8125 6.890625 
Q 36.078125 6.890625 40.9375 10.546875 
Q 45.796875 14.203125 45.796875 21.1875 
Q 45.796875 27.640625 41.28125 31.265625 
Q 36.765625 34.90625 28.71875 34.90625 
L 20.21875 34.90625 
L 20.21875 43.015625 
L 29.109375 43.015625 
Q 36.375 43.015625 40.234375 45.921875 
Q 44.09375 48.828125 44.09375 54.296875 
Q 44.09375 59.90625 40.109375 62.90625 
Q 36.140625 65.921875 28.71875 65.921875 
Q 24.65625 65.921875 20.015625 65.03125 
Q 15.375 64.15625 9.8125 62.3125 
L 9.8125 71.09375 
Q 15.4375 72.65625 20.34375 73.4375 
Q 25.25 74.21875 29.59375 74.21875 
Q 40.828125 74.21875 47.359375 69.109375 
Q 53.90625 64.015625 53.90625 55.328125 
Q 53.90625 49.265625 50.4375 45.09375 
Q 46.96875 40.921875 40.578125 39.3125 
z
" id="DejaVuSans-51"/>
      </defs>
      <g transform="translate(24.816875 115.049315)scale(0.1 -0.1)">
       <use xlink:href="#DejaVuSans-48"/>
       <use x="63.623047" xlink:href="#DejaVuSans-46"/>
       <use x="95.410156" xlink:href="#DejaVuSans-51"/>
      </g>
     </g>
    </g>
    <g id="ytick_5">
     <g id="line2d_12">
      <g>
       <use style="stroke:#000000;stroke-width:0.8;" x="47.72" xlink:href="#m32eb5c9432" y="85.983045"/>
      </g>
     </g>
     <g id="text_12">
      <!-- 0.4 -->
      <defs>
       <path d="M 37.796875 64.3125 
L 12.890625 25.390625 
L 37.796875 25.390625 
z
M 35.203125 72.90625 
L 47.609375 72.90625 
L 47.609375 25.390625 
L 58.015625 25.390625 
L 58.015625 17.1875 
L 47.609375 17.1875 
L 47.609375 0 
L 37.796875 0 
L 37.796875 17.1875 
L 4.890625 17.1875 
L 4.890625 26.703125 
z
" id="DejaVuSans-52"/>
      </defs>
      <g transform="translate(24.816875 89.782263)scale(0.1 -0.1)">
       <use xlink:href="#DejaVuSans-48"/>
       <use x="63.623047" xlink:href="#DejaVuSans-46"/>
       <use x="95.410156" xlink:href="#DejaVuSans-52"/>
      </g>
     </g>
    </g>
    <g id="ytick_6">
     <g id="line2d_13">
      <g>
       <use style="stroke:#000000;stroke-width:0.8;" x="47.72" xlink:href="#m32eb5c9432" y="60.715993"/>
      </g>
     </g>
     <g id="text_13">
      <!-- 0.5 -->
      <defs>
       <path d="M 10.796875 72.90625 
L 49.515625 72.90625 
L 49.515625 64.59375 
L 19.828125 64.59375 
L 19.828125 46.734375 
Q 21.96875 47.46875 24.109375 47.828125 
Q 26.265625 48.1875 28.421875 48.1875 
Q 40.625 48.1875 47.75 41.5 
Q 54.890625 34.8125 54.890625 23.390625 
Q 54.890625 11.625 47.5625 5.09375 
Q 40.234375 -1.421875 26.90625 -1.421875 
Q 22.3125 -1.421875 17.546875 -0.640625 
Q 12.796875 0.140625 7.71875 1.703125 
L 7.71875 11.625 
Q 12.109375 9.234375 16.796875 8.0625 
Q 21.484375 6.890625 26.703125 6.890625 
Q 35.15625 6.890625 40.078125 11.328125 
Q 45.015625 15.765625 45.015625 23.390625 
Q 45.015625 31 40.078125 35.4375 
Q 35.15625 39.890625 26.703125 39.890625 
Q 22.75 39.890625 18.8125 39.015625 
Q 14.890625 38.140625 10.796875 36.28125 
z
" id="DejaVuSans-53"/>
      </defs>
      <g transform="translate(24.816875 64.515212)scale(0.1 -0.1)">
       <use xlink:href="#DejaVuSans-48"/>
       <use x="63.623047" xlink:href="#DejaVuSans-46"/>
       <use x="95.410156" xlink:href="#DejaVuSans-53"/>
      </g>
     </g>
    </g>
    <g id="ytick_7">
     <g id="line2d_14">
      <g>
       <use style="stroke:#000000;stroke-width:0.8;" x="47.72" xlink:href="#m32eb5c9432" y="35.448942"/>
      </g>
     </g>
     <g id="text_14">
      <!-- 0.6 -->
      <defs>
       <path d="M 33.015625 40.375 
Q 26.375 40.375 22.484375 35.828125 
Q 18.609375 31.296875 18.609375 23.390625 
Q 18.609375 15.53125 22.484375 10.953125 
Q 26.375 6.390625 33.015625 6.390625 
Q 39.65625 6.390625 43.53125 10.953125 
Q 47.40625 15.53125 47.40625 23.390625 
Q 47.40625 31.296875 43.53125 35.828125 
Q 39.65625 40.375 33.015625 40.375 
z
M 52.59375 71.296875 
L 52.59375 62.3125 
Q 48.875 64.0625 45.09375 64.984375 
Q 41.3125 65.921875 37.59375 65.921875 
Q 27.828125 65.921875 22.671875 59.328125 
Q 17.53125 52.734375 16.796875 39.40625 
Q 19.671875 43.65625 24.015625 45.921875 
Q 28.375 48.1875 33.59375 48.1875 
Q 44.578125 48.1875 50.953125 41.515625 
Q 57.328125 34.859375 57.328125 23.390625 
Q 57.328125 12.15625 50.6875 5.359375 
Q 44.046875 -1.421875 33.015625 -1.421875 
Q 20.359375 -1.421875 13.671875 8.265625 
Q 6.984375 17.96875 6.984375 36.375 
Q 6.984375 53.65625 15.1875 63.9375 
Q 23.390625 74.21875 37.203125 74.21875 
Q 40.921875 74.21875 44.703125 73.484375 
Q 48.484375 72.75 52.59375 71.296875 
z
" id="DejaVuSans-54"/>
      </defs>
      <g transform="translate(24.816875 39.248161)scale(0.1 -0.1)">
       <use xlink:href="#DejaVuSans-48"/>
       <use x="63.623047" xlink:href="#DejaVuSans-46"/>
       <use x="95.410156" xlink:href="#DejaVuSans-54"/>
      </g>
     </g>
    </g>
    <g id="text_15">
     <!-- F1 score -->
     <g transform="translate(18.737187 128.155469)rotate(-90)scale(0.1 -0.1)">
      <use xlink:href="#DejaVuSans-70"/>
      <use x="57.519531" xlink:href="#DejaVuSans-49"/>
      <use x="121.142578" xlink:href="#DejaVuSans-32"/>
      <use x="152.929688" xlink:href="#DejaVuSans-115"/>
      <use x="205.029297" xlink:href="#DejaVuSans-99"/>
      <use x="260.009766" xlink:href="#DejaVuSans-111"/>
      <use x="321.191406" xlink:href="#DejaVuSans-114"/>
      <use x="362.273438" xlink:href="#DejaVuSans-101"/>
     </g>
    </g>
   </g>
   <g id="patch_10">
    <path d="M 47.72 187.05125 
L 47.72 26.88 
" style="fill:none;stroke:#000000;stroke-linecap:square;stroke-linejoin:miter;stroke-width:0.8;"/>
   </g>
   <g id="patch_11">
    <path d="M 47.72 187.05125 
L 280.08 187.05125 
" style="fill:none;stroke:#000000;stroke-linecap:square;stroke-linejoin:miter;stroke-width:0.8;"/>
   </g>
   <g id="text_16">
    <!-- Eduskunta-VKK -->
    <defs>
     <path d="M 9.078125 75.984375 
L 18.109375 75.984375 
L 18.109375 31.109375 
L 44.921875 54.6875 
L 56.390625 54.6875 
L 27.390625 29.109375 
L 57.625 0 
L 45.90625 0 
L 18.109375 26.703125 
L 18.109375 0 
L 9.078125 0 
z
" id="DejaVuSans-107"/>
     <path d="M 28.609375 0 
L 0.78125 72.90625 
L 11.078125 72.90625 
L 34.1875 11.53125 
L 57.328125 72.90625 
L 67.578125 72.90625 
L 39.796875 0 
z
" id="DejaVuSans-86"/>
     <path d="M 9.8125 72.90625 
L 19.671875 72.90625 
L 19.671875 42.09375 
L 52.390625 72.90625 
L 65.09375 72.90625 
L 28.90625 38.921875 
L 67.671875 0 
L 54.6875 0 
L 19.671875 35.109375 
L 19.671875 0 
L 9.8125 0 
z
" id="DejaVuSans-75"/>
    </defs>
    <g transform="translate(118.132187 20.88)scale(0.12 -0.12)">
     <use xlink:href="#DejaVuSans-69"/>
     <use x="63.183594" xlink:href="#DejaVuSans-100"/>
     <use x="126.660156" xlink:href="#DejaVuSans-117"/>
     <use x="190.039062" xlink:href="#DejaVuSans-115"/>
     <use x="242.138672" xlink:href="#DejaVuSans-107"/>
     <use x="300.001953" xlink:href="#DejaVuSans-117"/>
     <use x="363.380859" xlink:href="#DejaVuSans-110"/>
     <use x="426.759766" xlink:href="#DejaVuSans-116"/>
     <use x="465.96875" xlink:href="#DejaVuSans-97"/>
     <use x="527.248047" xlink:href="#DejaVuSans-45"/>
     <use x="563.253906" xlink:href="#DejaVuSans-86"/>
     <use x="631.662109" xlink:href="#DejaVuSans-75"/>
     <use x="697.238281" xlink:href="#DejaVuSans-75"/>
    </g>
   </g>
  </g>
  <g id="axes_2">
   <g id="patch_12">
    <path d="M 330.32 187.05125 
L 562.68 187.05125 
L 562.68 26.88 
L 330.32 26.88 
z
" style="fill:#ffffff;"/>
   </g>
   <g id="patch_13">
    <path clip-path="url(#p9337ddf0e5)" d="M 340.881818 187.05125 
L 365.733155 187.05125 
L 365.733155 34.507202 
L 340.881818 34.507202 
z
" style="fill:#ff7f0e;"/>
   </g>
   <g id="patch_14">
    <path clip-path="url(#p9337ddf0e5)" d="M 371.945989 187.05125 
L 396.797326 187.05125 
L 396.797326 47.68614 
L 371.945989 47.68614 
z
" style="fill:#2ca02c;"/>
   </g>
   <g id="patch_15">
    <path clip-path="url(#p9337ddf0e5)" d="M 403.01016 187.05125 
L 427.861497 187.05125 
L 427.861497 36.564465 
L 403.01016 36.564465 
z
" style="fill:#d62728;"/>
   </g>
   <g id="patch_16">
    <path clip-path="url(#p9337ddf0e5)" d="M 434.074332 187.05125 
L 458.925668 187.05125 
L 458.925668 42.746586 
L 434.074332 42.746586 
z
" style="fill:#9467bd;"/>
   </g>
   <g id="patch_17">
    <path clip-path="url(#p9337ddf0e5)" d="M 465.138503 187.05125 
L 489.98984 187.05125 
L 489.98984 45.106569 
L 465.138503 45.106569 
z
" style="fill:#8c564b;"/>
   </g>
   <g id="patch_18">
    <path clip-path="url(#p9337ddf0e5)" d="M 496.202674 187.05125 
L 521.054011 187.05125 
L 521.054011 35.084191 
L 496.202674 35.084191 
z
" style="fill:#e377c2;"/>
   </g>
   <g id="patch_19">
    <path clip-path="url(#p9337ddf0e5)" d="M 527.266845 187.05125 
L 552.118182 187.05125 
L 552.118182 125.845661 
L 527.266845 125.845661 
z
" style="fill:#7f7f7f;"/>
   </g>
   <g id="matplotlib.axis_3">
    <g id="xtick_8">
     <g id="line2d_15">
      <g>
       <use style="stroke:#000000;stroke-width:0.8;" x="353.307487" xlink:href="#mc64f66ba54" y="187.05125"/>
      </g>
     </g>
     <g id="text_17">
      <!-- BERT multilingual -->
      <g transform="translate(356.066862 282.495)rotate(-90)scale(0.1 -0.1)">
       <use xlink:href="#DejaVuSans-66"/>
       <use x="68.603516" xlink:href="#DejaVuSans-69"/>
       <use x="131.787109" xlink:href="#DejaVuSans-82"/>
       <use x="201.160156" xlink:href="#DejaVuSans-84"/>
       <use x="262.244141" xlink:href="#DejaVuSans-32"/>
       <use x="294.03125" xlink:href="#DejaVuSans-109"/>
       <use x="391.443359" xlink:href="#DejaVuSans-117"/>
       <use x="454.822266" xlink:href="#DejaVuSans-108"/>
       <use x="482.605469" xlink:href="#DejaVuSans-116"/>
       <use x="521.814453" xlink:href="#DejaVuSans-105"/>
       <use x="549.597656" xlink:href="#DejaVuSans-108"/>
       <use x="577.380859" xlink:href="#DejaVuSans-105"/>
       <use x="605.164062" xlink:href="#DejaVuSans-110"/>
       <use x="668.542969" xlink:href="#DejaVuSans-103"/>
       <use x="732.019531" xlink:href="#DejaVuSans-117"/>
       <use x="795.398438" xlink:href="#DejaVuSans-97"/>
       <use x="856.677734" xlink:href="#DejaVuSans-108"/>
      </g>
     </g>
    </g>
    <g id="xtick_9">
     <g id="line2d_16">
      <g>
       <use style="stroke:#000000;stroke-width:0.8;" x="384.371658" xlink:href="#mc64f66ba54" y="187.05125"/>
      </g>
     </g>
     <g id="text_18">
      <!-- BOREP -->
      <g transform="translate(387.131033 228.079375)rotate(-90)scale(0.1 -0.1)">
       <use xlink:href="#DejaVuSans-66"/>
       <use x="68.587891" xlink:href="#DejaVuSans-79"/>
       <use x="147.298828" xlink:href="#DejaVuSans-82"/>
       <use x="216.78125" xlink:href="#DejaVuSans-69"/>
       <use x="279.964844" xlink:href="#DejaVuSans-80"/>
      </g>
     </g>
    </g>
    <g id="xtick_10">
     <g id="line2d_17">
      <g>
       <use style="stroke:#000000;stroke-width:0.8;" x="415.435829" xlink:href="#mc64f66ba54" y="187.05125"/>
      </g>
     </g>
     <g id="text_19">
      <!-- LASER -->
      <g transform="translate(418.195204 226.0825)rotate(-90)scale(0.1 -0.1)">
       <use xlink:href="#DejaVuSans-76"/>
       <use x="55.744141" xlink:href="#DejaVuSans-65"/>
       <use x="124.152344" xlink:href="#DejaVuSans-83"/>
       <use x="187.628906" xlink:href="#DejaVuSans-69"/>
       <use x="250.8125" xlink:href="#DejaVuSans-82"/>
      </g>
     </g>
    </g>
    <g id="xtick_11">
     <g id="line2d_18">
      <g>
       <use style="stroke:#000000;stroke-width:0.8;" x="446.5" xlink:href="#mc64f66ba54" y="187.05125"/>
      </g>
     </g>
     <g id="text_20">
      <!-- Pooled FastText -->
      <g transform="translate(449.259375 273.83875)rotate(-90)scale(0.1 -0.1)">
       <use xlink:href="#DejaVuSans-80"/>
       <use x="60.255859" xlink:href="#DejaVuSans-111"/>
       <use x="121.4375" xlink:href="#DejaVuSans-111"/>
       <use x="182.619141" xlink:href="#DejaVuSans-108"/>
       <use x="210.402344" xlink:href="#DejaVuSans-101"/>
       <use x="271.925781" xlink:href="#DejaVuSans-100"/>
       <use x="335.402344" xlink:href="#DejaVuSans-32"/>
       <use x="367.189453" xlink:href="#DejaVuSans-70"/>
       <use x="424.568359" xlink:href="#DejaVuSans-97"/>
       <use x="485.847656" xlink:href="#DejaVuSans-115"/>
       <use x="537.947266" xlink:href="#DejaVuSans-116"/>
       <use x="577.15625" xlink:href="#DejaVuSans-84"/>
       <use x="637.974609" xlink:href="#DejaVuSans-101"/>
       <use x="699.482422" xlink:href="#DejaVuSans-120"/>
       <use x="758.662109" xlink:href="#DejaVuSans-116"/>
      </g>
     </g>
    </g>
    <g id="xtick_12">
     <g id="line2d_19">
      <g>
       <use style="stroke:#000000;stroke-width:0.8;" x="477.564171" xlink:href="#mc64f66ba54" y="187.05125"/>
      </g>
     </g>
     <g id="text_21">
      <!-- Pooled word2vec -->
      <g transform="translate(480.323546 279.459062)rotate(-90)scale(0.1 -0.1)">
       <use xlink:href="#DejaVuSans-80"/>
       <use x="60.255859" xlink:href="#DejaVuSans-111"/>
       <use x="121.4375" xlink:href="#DejaVuSans-111"/>
       <use x="182.619141" xlink:href="#DejaVuSans-108"/>
       <use x="210.402344" xlink:href="#DejaVuSans-101"/>
       <use x="271.925781" xlink:href="#DejaVuSans-100"/>
       <use x="335.402344" xlink:href="#DejaVuSans-32"/>
       <use x="367.189453" xlink:href="#DejaVuSans-119"/>
       <use x="448.976562" xlink:href="#DejaVuSans-111"/>
       <use x="510.158203" xlink:href="#DejaVuSans-114"/>
       <use x="551.255859" xlink:href="#DejaVuSans-100"/>
       <use x="614.732422" xlink:href="#DejaVuSans-50"/>
       <use x="678.355469" xlink:href="#DejaVuSans-118"/>
       <use x="737.535156" xlink:href="#DejaVuSans-101"/>
       <use x="799.058594" xlink:href="#DejaVuSans-99"/>
      </g>
     </g>
    </g>
    <g id="xtick_13">
     <g id="line2d_20">
      <g>
       <use style="stroke:#000000;stroke-width:0.8;" x="508.628342" xlink:href="#mc64f66ba54" y="187.05125"/>
      </g>
     </g>
     <g id="text_22">
      <!-- SIF -->
      <g transform="translate(511.387717 209.10125)rotate(-90)scale(0.1 -0.1)">
       <use xlink:href="#DejaVuSans-83"/>
       <use x="63.476562" xlink:href="#DejaVuSans-73"/>
       <use x="92.96875" xlink:href="#DejaVuSans-70"/>
      </g>
     </g>
    </g>
    <g id="xtick_14">
     <g id="line2d_21">
      <g>
       <use style="stroke:#000000;stroke-width:0.8;" x="539.692513" xlink:href="#mc64f66ba54" y="187.05125"/>
      </g>
     </g>
     <g id="text_23">
      <!-- TF-IDF -->
      <g transform="translate(542.451888 225.92)rotate(-90)scale(0.1 -0.1)">
       <use xlink:href="#DejaVuSans-84"/>
       <use x="61.083984" xlink:href="#DejaVuSans-70"/>
       <use x="118.603516" xlink:href="#DejaVuSans-45"/>
       <use x="154.6875" xlink:href="#DejaVuSans-73"/>
       <use x="184.179688" xlink:href="#DejaVuSans-68"/>
       <use x="261.181641" xlink:href="#DejaVuSans-70"/>
      </g>
     </g>
    </g>
   </g>
   <g id="matplotlib.axis_4">
    <g id="ytick_8">
     <g id="line2d_22">
      <g>
       <use style="stroke:#000000;stroke-width:0.8;" x="330.32" xlink:href="#m32eb5c9432" y="187.05125"/>
      </g>
     </g>
     <g id="text_24">
      <!-- 0.0 -->
      <g transform="translate(307.416875 190.850469)scale(0.1 -0.1)">
       <use xlink:href="#DejaVuSans-48"/>
       <use x="63.623047" xlink:href="#DejaVuSans-46"/>
       <use x="95.410156" xlink:href="#DejaVuSans-48"/>
      </g>
     </g>
    </g>
    <g id="ytick_9">
     <g id="line2d_23">
      <g>
       <use style="stroke:#000000;stroke-width:0.8;" x="330.32" xlink:href="#m32eb5c9432" y="157.048931"/>
      </g>
     </g>
     <g id="text_25">
      <!-- 0.1 -->
      <g transform="translate(307.416875 160.84815)scale(0.1 -0.1)">
       <use xlink:href="#DejaVuSans-48"/>
       <use x="63.623047" xlink:href="#DejaVuSans-46"/>
       <use x="95.410156" xlink:href="#DejaVuSans-49"/>
      </g>
     </g>
    </g>
    <g id="ytick_10">
     <g id="line2d_24">
      <g>
       <use style="stroke:#000000;stroke-width:0.8;" x="330.32" xlink:href="#m32eb5c9432" y="127.046613"/>
      </g>
     </g>
     <g id="text_26">
      <!-- 0.2 -->
      <g transform="translate(307.416875 130.845832)scale(0.1 -0.1)">
       <use xlink:href="#DejaVuSans-48"/>
       <use x="63.623047" xlink:href="#DejaVuSans-46"/>
       <use x="95.410156" xlink:href="#DejaVuSans-50"/>
      </g>
     </g>
    </g>
    <g id="ytick_11">
     <g id="line2d_25">
      <g>
       <use style="stroke:#000000;stroke-width:0.8;" x="330.32" xlink:href="#m32eb5c9432" y="97.044294"/>
      </g>
     </g>
     <g id="text_27">
      <!-- 0.3 -->
      <g transform="translate(307.416875 100.843513)scale(0.1 -0.1)">
       <use xlink:href="#DejaVuSans-48"/>
       <use x="63.623047" xlink:href="#DejaVuSans-46"/>
       <use x="95.410156" xlink:href="#DejaVuSans-51"/>
      </g>
     </g>
    </g>
    <g id="ytick_12">
     <g id="line2d_26">
      <g>
       <use style="stroke:#000000;stroke-width:0.8;" x="330.32" xlink:href="#m32eb5c9432" y="67.041976"/>
      </g>
     </g>
     <g id="text_28">
      <!-- 0.4 -->
      <g transform="translate(307.416875 70.841195)scale(0.1 -0.1)">
       <use xlink:href="#DejaVuSans-48"/>
       <use x="63.623047" xlink:href="#DejaVuSans-46"/>
       <use x="95.410156" xlink:href="#DejaVuSans-52"/>
      </g>
     </g>
    </g>
    <g id="ytick_13">
     <g id="line2d_27">
      <g>
       <use style="stroke:#000000;stroke-width:0.8;" x="330.32" xlink:href="#m32eb5c9432" y="37.039657"/>
      </g>
     </g>
     <g id="text_29">
      <!-- 0.5 -->
      <g transform="translate(307.416875 40.838876)scale(0.1 -0.1)">
       <use xlink:href="#DejaVuSans-48"/>
       <use x="63.623047" xlink:href="#DejaVuSans-46"/>
       <use x="95.410156" xlink:href="#DejaVuSans-53"/>
      </g>
     </g>
    </g>
    <g id="text_30">
     <!-- Pearson's coefficient -->
     <defs>
      <path d="M 17.921875 72.90625 
L 17.921875 45.796875 
L 9.625 45.796875 
L 9.625 72.90625 
z
" id="DejaVuSans-39"/>
      <path d="M 37.109375 75.984375 
L 37.109375 68.5 
L 28.515625 68.5 
Q 23.6875 68.5 21.796875 66.546875 
Q 19.921875 64.59375 19.921875 59.515625 
L 19.921875 54.6875 
L 34.71875 54.6875 
L 34.71875 47.703125 
L 19.921875 47.703125 
L 19.921875 0 
L 10.890625 0 
L 10.890625 47.703125 
L 2.296875 47.703125 
L 2.296875 54.6875 
L 10.890625 54.6875 
L 10.890625 58.5 
Q 10.890625 67.625 15.140625 71.796875 
Q 19.390625 75.984375 28.609375 75.984375 
z
" id="DejaVuSans-102"/>
     </defs>
     <g transform="translate(301.337188 158.713281)rotate(-90)scale(0.1 -0.1)">
      <use xlink:href="#DejaVuSans-80"/>
      <use x="60.255859" xlink:href="#DejaVuSans-101"/>
      <use x="121.779297" xlink:href="#DejaVuSans-97"/>
      <use x="183.058594" xlink:href="#DejaVuSans-114"/>
      <use x="224.171875" xlink:href="#DejaVuSans-115"/>
      <use x="276.271484" xlink:href="#DejaVuSans-111"/>
      <use x="337.453125" xlink:href="#DejaVuSans-110"/>
      <use x="400.832031" xlink:href="#DejaVuSans-39"/>
      <use x="428.322266" xlink:href="#DejaVuSans-115"/>
      <use x="480.421875" xlink:href="#DejaVuSans-32"/>
      <use x="512.208984" xlink:href="#DejaVuSans-99"/>
      <use x="567.189453" xlink:href="#DejaVuSans-111"/>
      <use x="628.371094" xlink:href="#DejaVuSans-101"/>
      <use x="689.894531" xlink:href="#DejaVuSans-102"/>
      <use x="725.099609" xlink:href="#DejaVuSans-102"/>
      <use x="760.304688" xlink:href="#DejaVuSans-105"/>
      <use x="788.087891" xlink:href="#DejaVuSans-99"/>
      <use x="843.068359" xlink:href="#DejaVuSans-105"/>
      <use x="870.851562" xlink:href="#DejaVuSans-101"/>
      <use x="932.375" xlink:href="#DejaVuSans-110"/>
      <use x="995.753906" xlink:href="#DejaVuSans-116"/>
     </g>
    </g>
   </g>
   <g id="patch_20">
    <path d="M 330.32 187.05125 
L 330.32 26.88 
" style="fill:none;stroke:#000000;stroke-linecap:square;stroke-linejoin:miter;stroke-width:0.8;"/>
   </g>
   <g id="patch_21">
    <path d="M 330.32 187.05125 
L 562.68 187.05125 
" style="fill:none;stroke:#000000;stroke-linecap:square;stroke-linejoin:miter;stroke-width:0.8;"/>
   </g>
   <g id="text_31">
    <!-- Opusparcus -->
    <defs>
     <path d="M 18.109375 8.203125 
L 18.109375 -20.796875 
L 9.078125 -20.796875 
L 9.078125 54.6875 
L 18.109375 54.6875 
L 18.109375 46.390625 
Q 20.953125 51.265625 25.265625 53.625 
Q 29.59375 56 35.59375 56 
Q 45.5625 56 51.78125 48.09375 
Q 58.015625 40.1875 58.015625 27.296875 
Q 58.015625 14.40625 51.78125 6.484375 
Q 45.5625 -1.421875 35.59375 -1.421875 
Q 29.59375 -1.421875 25.265625 0.953125 
Q 20.953125 3.328125 18.109375 8.203125 
z
M 48.6875 27.296875 
Q 48.6875 37.203125 44.609375 42.84375 
Q 40.53125 48.484375 33.40625 48.484375 
Q 26.265625 48.484375 22.1875 42.84375 
Q 18.109375 37.203125 18.109375 27.296875 
Q 18.109375 17.390625 22.1875 11.75 
Q 26.265625 6.109375 33.40625 6.109375 
Q 40.53125 6.109375 44.609375 11.75 
Q 48.6875 17.390625 48.6875 27.296875 
z
" id="DejaVuSans-112"/>
    </defs>
    <g transform="translate(410.861875 20.88)scale(0.12 -0.12)">
     <use xlink:href="#DejaVuSans-79"/>
     <use x="78.710938" xlink:href="#DejaVuSans-112"/>
     <use x="142.1875" xlink:href="#DejaVuSans-117"/>
     <use x="205.566406" xlink:href="#DejaVuSans-115"/>
     <use x="257.666016" xlink:href="#DejaVuSans-112"/>
     <use x="321.142578" xlink:href="#DejaVuSans-97"/>
     <use x="382.421875" xlink:href="#DejaVuSans-114"/>
     <use x="423.503906" xlink:href="#DejaVuSans-99"/>
     <use x="478.484375" xlink:href="#DejaVuSans-117"/>
     <use x="541.863281" xlink:href="#DejaVuSans-115"/>
    </g>
   </g>
  </g>
  <g id="axes_3">
   <g id="patch_22">
    <path d="M 47.72 469.65125 
L 280.08 469.65125 
L 280.08 309.48 
L 47.72 309.48 
z
" style="fill:#ffffff;"/>
   </g>
   <g id="patch_23">
    <path clip-path="url(#p10aa367d51)" d="M 58.281818 469.65125 
L 83.133155 469.65125 
L 83.133155 328.899884 
L 58.281818 328.899884 
z
" style="fill:#ff7f0e;"/>
   </g>
   <g id="patch_24">
    <path clip-path="url(#p10aa367d51)" d="M 89.345989 469.65125 
L 114.197326 469.65125 
L 114.197326 320.606966 
L 89.345989 320.606966 
z
" style="fill:#2ca02c;"/>
   </g>
   <g id="patch_25">
    <path clip-path="url(#p10aa367d51)" d="M 120.41016 469.65125 
L 145.261497 469.65125 
L 145.261497 318.096266 
L 120.41016 318.096266 
z
" style="fill:#d62728;"/>
   </g>
   <g id="patch_26">
    <path clip-path="url(#p10aa367d51)" d="M 151.474332 469.65125 
L 176.325668 469.65125 
L 176.325668 326.541348 
L 151.474332 326.541348 
z
" style="fill:#9467bd;"/>
   </g>
   <g id="patch_27">
    <path clip-path="url(#p10aa367d51)" d="M 182.538503 469.65125 
L 207.38984 469.65125 
L 207.38984 317.107202 
L 182.538503 317.107202 
z
" style="fill:#8c564b;"/>
   </g>
   <g id="patch_28">
    <path clip-path="url(#p10aa367d51)" d="M 213.602674 469.65125 
L 238.454011 469.65125 
L 238.454011 319.693984 
L 213.602674 319.693984 
z
" style="fill:#e377c2;"/>
   </g>
   <g id="patch_29">
    <path clip-path="url(#p10aa367d51)" d="M 244.666845 469.65125 
L 269.518182 469.65125 
L 269.518182 330.80193 
L 244.666845 330.80193 
z
" style="fill:#7f7f7f;"/>
   </g>
   <g id="matplotlib.axis_5">
    <g id="xtick_15">
     <g id="line2d_28">
      <g>
       <use style="stroke:#000000;stroke-width:0.8;" x="70.707487" xlink:href="#mc64f66ba54" y="469.65125"/>
      </g>
     </g>
     <g id="text_32">
      <!-- BERT multilingual -->
      <g transform="translate(73.466862 565.095)rotate(-90)scale(0.1 -0.1)">
       <use xlink:href="#DejaVuSans-66"/>
       <use x="68.603516" xlink:href="#DejaVuSans-69"/>
       <use x="131.787109" xlink:href="#DejaVuSans-82"/>
       <use x="201.160156" xlink:href="#DejaVuSans-84"/>
       <use x="262.244141" xlink:href="#DejaVuSans-32"/>
       <use x="294.03125" xlink:href="#DejaVuSans-109"/>
       <use x="391.443359" xlink:href="#DejaVuSans-117"/>
       <use x="454.822266" xlink:href="#DejaVuSans-108"/>
       <use x="482.605469" xlink:href="#DejaVuSans-116"/>
       <use x="521.814453" xlink:href="#DejaVuSans-105"/>
       <use x="549.597656" xlink:href="#DejaVuSans-108"/>
       <use x="577.380859" xlink:href="#DejaVuSans-105"/>
       <use x="605.164062" xlink:href="#DejaVuSans-110"/>
       <use x="668.542969" xlink:href="#DejaVuSans-103"/>
       <use x="732.019531" xlink:href="#DejaVuSans-117"/>
       <use x="795.398438" xlink:href="#DejaVuSans-97"/>
       <use x="856.677734" xlink:href="#DejaVuSans-108"/>
      </g>
     </g>
    </g>
    <g id="xtick_16">
     <g id="line2d_29">
      <g>
       <use style="stroke:#000000;stroke-width:0.8;" x="101.771658" xlink:href="#mc64f66ba54" y="469.65125"/>
      </g>
     </g>
     <g id="text_33">
      <!-- BOREP -->
      <g transform="translate(104.531033 510.679375)rotate(-90)scale(0.1 -0.1)">
       <use xlink:href="#DejaVuSans-66"/>
       <use x="68.587891" xlink:href="#DejaVuSans-79"/>
       <use x="147.298828" xlink:href="#DejaVuSans-82"/>
       <use x="216.78125" xlink:href="#DejaVuSans-69"/>
       <use x="279.964844" xlink:href="#DejaVuSans-80"/>
      </g>
     </g>
    </g>
    <g id="xtick_17">
     <g id="line2d_30">
      <g>
       <use style="stroke:#000000;stroke-width:0.8;" x="132.835829" xlink:href="#mc64f66ba54" y="469.65125"/>
      </g>
     </g>
     <g id="text_34">
      <!-- LASER -->
      <g transform="translate(135.595204 508.6825)rotate(-90)scale(0.1 -0.1)">
       <use xlink:href="#DejaVuSans-76"/>
       <use x="55.744141" xlink:href="#DejaVuSans-65"/>
       <use x="124.152344" xlink:href="#DejaVuSans-83"/>
       <use x="187.628906" xlink:href="#DejaVuSans-69"/>
       <use x="250.8125" xlink:href="#DejaVuSans-82"/>
      </g>
     </g>
    </g>
    <g id="xtick_18">
     <g id="line2d_31">
      <g>
       <use style="stroke:#000000;stroke-width:0.8;" x="163.9" xlink:href="#mc64f66ba54" y="469.65125"/>
      </g>
     </g>
     <g id="text_35">
      <!-- Pooled FastText -->
      <g transform="translate(166.659375 556.43875)rotate(-90)scale(0.1 -0.1)">
       <use xlink:href="#DejaVuSans-80"/>
       <use x="60.255859" xlink:href="#DejaVuSans-111"/>
       <use x="121.4375" xlink:href="#DejaVuSans-111"/>
       <use x="182.619141" xlink:href="#DejaVuSans-108"/>
       <use x="210.402344" xlink:href="#DejaVuSans-101"/>
       <use x="271.925781" xlink:href="#DejaVuSans-100"/>
       <use x="335.402344" xlink:href="#DejaVuSans-32"/>
       <use x="367.189453" xlink:href="#DejaVuSans-70"/>
       <use x="424.568359" xlink:href="#DejaVuSans-97"/>
       <use x="485.847656" xlink:href="#DejaVuSans-115"/>
       <use x="537.947266" xlink:href="#DejaVuSans-116"/>
       <use x="577.15625" xlink:href="#DejaVuSans-84"/>
       <use x="637.974609" xlink:href="#DejaVuSans-101"/>
       <use x="699.482422" xlink:href="#DejaVuSans-120"/>
       <use x="758.662109" xlink:href="#DejaVuSans-116"/>
      </g>
     </g>
    </g>
    <g id="xtick_19">
     <g id="line2d_32">
      <g>
       <use style="stroke:#000000;stroke-width:0.8;" x="194.964171" xlink:href="#mc64f66ba54" y="469.65125"/>
      </g>
     </g>
     <g id="text_36">
      <!-- Pooled word2vec -->
      <g transform="translate(197.723546 562.059062)rotate(-90)scale(0.1 -0.1)">
       <use xlink:href="#DejaVuSans-80"/>
       <use x="60.255859" xlink:href="#DejaVuSans-111"/>
       <use x="121.4375" xlink:href="#DejaVuSans-111"/>
       <use x="182.619141" xlink:href="#DejaVuSans-108"/>
       <use x="210.402344" xlink:href="#DejaVuSans-101"/>
       <use x="271.925781" xlink:href="#DejaVuSans-100"/>
       <use x="335.402344" xlink:href="#DejaVuSans-32"/>
       <use x="367.189453" xlink:href="#DejaVuSans-119"/>
       <use x="448.976562" xlink:href="#DejaVuSans-111"/>
       <use x="510.158203" xlink:href="#DejaVuSans-114"/>
       <use x="551.255859" xlink:href="#DejaVuSans-100"/>
       <use x="614.732422" xlink:href="#DejaVuSans-50"/>
       <use x="678.355469" xlink:href="#DejaVuSans-118"/>
       <use x="737.535156" xlink:href="#DejaVuSans-101"/>
       <use x="799.058594" xlink:href="#DejaVuSans-99"/>
      </g>
     </g>
    </g>
    <g id="xtick_20">
     <g id="line2d_33">
      <g>
       <use style="stroke:#000000;stroke-width:0.8;" x="226.028342" xlink:href="#mc64f66ba54" y="469.65125"/>
      </g>
     </g>
     <g id="text_37">
      <!-- SIF -->
      <g transform="translate(228.787717 491.70125)rotate(-90)scale(0.1 -0.1)">
       <use xlink:href="#DejaVuSans-83"/>
       <use x="63.476562" xlink:href="#DejaVuSans-73"/>
       <use x="92.96875" xlink:href="#DejaVuSans-70"/>
      </g>
     </g>
    </g>
    <g id="xtick_21">
     <g id="line2d_34">
      <g>
       <use style="stroke:#000000;stroke-width:0.8;" x="257.092513" xlink:href="#mc64f66ba54" y="469.65125"/>
      </g>
     </g>
     <g id="text_38">
      <!-- TF-IDF -->
      <g transform="translate(259.851888 508.52)rotate(-90)scale(0.1 -0.1)">
       <use xlink:href="#DejaVuSans-84"/>
       <use x="61.083984" xlink:href="#DejaVuSans-70"/>
       <use x="118.603516" xlink:href="#DejaVuSans-45"/>
       <use x="154.6875" xlink:href="#DejaVuSans-73"/>
       <use x="184.179688" xlink:href="#DejaVuSans-68"/>
       <use x="261.181641" xlink:href="#DejaVuSans-70"/>
      </g>
     </g>
    </g>
   </g>
   <g id="matplotlib.axis_6">
    <g id="ytick_14">
     <g id="line2d_35">
      <g>
       <use style="stroke:#000000;stroke-width:0.8;" x="47.72" xlink:href="#m32eb5c9432" y="469.65125"/>
      </g>
     </g>
     <g id="text_39">
      <!-- 0.0 -->
      <g transform="translate(24.816875 473.450469)scale(0.1 -0.1)">
       <use xlink:href="#DejaVuSans-48"/>
       <use x="63.623047" xlink:href="#DejaVuSans-46"/>
       <use x="95.410156" xlink:href="#DejaVuSans-48"/>
      </g>
     </g>
    </g>
    <g id="ytick_15">
     <g id="line2d_36">
      <g>
       <use style="stroke:#000000;stroke-width:0.8;" x="47.72" xlink:href="#m32eb5c9432" y="445.959371"/>
      </g>
     </g>
     <g id="text_40">
      <!-- 0.1 -->
      <g transform="translate(24.816875 449.75859)scale(0.1 -0.1)">
       <use xlink:href="#DejaVuSans-48"/>
       <use x="63.623047" xlink:href="#DejaVuSans-46"/>
       <use x="95.410156" xlink:href="#DejaVuSans-49"/>
      </g>
     </g>
    </g>
    <g id="ytick_16">
     <g id="line2d_37">
      <g>
       <use style="stroke:#000000;stroke-width:0.8;" x="47.72" xlink:href="#m32eb5c9432" y="422.267493"/>
      </g>
     </g>
     <g id="text_41">
      <!-- 0.2 -->
      <g transform="translate(24.816875 426.066712)scale(0.1 -0.1)">
       <use xlink:href="#DejaVuSans-48"/>
       <use x="63.623047" xlink:href="#DejaVuSans-46"/>
       <use x="95.410156" xlink:href="#DejaVuSans-50"/>
      </g>
     </g>
    </g>
    <g id="ytick_17">
     <g id="line2d_38">
      <g>
       <use style="stroke:#000000;stroke-width:0.8;" x="47.72" xlink:href="#m32eb5c9432" y="398.575614"/>
      </g>
     </g>
     <g id="text_42">
      <!-- 0.3 -->
      <g transform="translate(24.816875 402.374833)scale(0.1 -0.1)">
       <use xlink:href="#DejaVuSans-48"/>
       <use x="63.623047" xlink:href="#DejaVuSans-46"/>
       <use x="95.410156" xlink:href="#DejaVuSans-51"/>
      </g>
     </g>
    </g>
    <g id="ytick_18">
     <g id="line2d_39">
      <g>
       <use style="stroke:#000000;stroke-width:0.8;" x="47.72" xlink:href="#m32eb5c9432" y="374.883736"/>
      </g>
     </g>
     <g id="text_43">
      <!-- 0.4 -->
      <g transform="translate(24.816875 378.682955)scale(0.1 -0.1)">
       <use xlink:href="#DejaVuSans-48"/>
       <use x="63.623047" xlink:href="#DejaVuSans-46"/>
       <use x="95.410156" xlink:href="#DejaVuSans-52"/>
      </g>
     </g>
    </g>
    <g id="ytick_19">
     <g id="line2d_40">
      <g>
       <use style="stroke:#000000;stroke-width:0.8;" x="47.72" xlink:href="#m32eb5c9432" y="351.191857"/>
      </g>
     </g>
     <g id="text_44">
      <!-- 0.5 -->
      <g transform="translate(24.816875 354.991076)scale(0.1 -0.1)">
       <use xlink:href="#DejaVuSans-48"/>
       <use x="63.623047" xlink:href="#DejaVuSans-46"/>
       <use x="95.410156" xlink:href="#DejaVuSans-53"/>
      </g>
     </g>
    </g>
    <g id="ytick_20">
     <g id="line2d_41">
      <g>
       <use style="stroke:#000000;stroke-width:0.8;" x="47.72" xlink:href="#m32eb5c9432" y="327.499979"/>
      </g>
     </g>
     <g id="text_45">
      <!-- 0.6 -->
      <g transform="translate(24.816875 331.299198)scale(0.1 -0.1)">
       <use xlink:href="#DejaVuSans-48"/>
       <use x="63.623047" xlink:href="#DejaVuSans-46"/>
       <use x="95.410156" xlink:href="#DejaVuSans-54"/>
      </g>
     </g>
    </g>
    <g id="text_46">
     <!-- F1 score -->
     <g transform="translate(18.737187 410.755469)rotate(-90)scale(0.1 -0.1)">
      <use xlink:href="#DejaVuSans-70"/>
      <use x="57.519531" xlink:href="#DejaVuSans-49"/>
      <use x="121.142578" xlink:href="#DejaVuSans-32"/>
      <use x="152.929688" xlink:href="#DejaVuSans-115"/>
      <use x="205.029297" xlink:href="#DejaVuSans-99"/>
      <use x="260.009766" xlink:href="#DejaVuSans-111"/>
      <use x="321.191406" xlink:href="#DejaVuSans-114"/>
      <use x="362.273438" xlink:href="#DejaVuSans-101"/>
     </g>
    </g>
   </g>
   <g id="patch_30">
    <path d="M 47.72 469.65125 
L 47.72 309.48 
" style="fill:none;stroke:#000000;stroke-linecap:square;stroke-linejoin:miter;stroke-width:0.8;"/>
   </g>
   <g id="patch_31">
    <path d="M 47.72 469.65125 
L 280.08 469.65125 
" style="fill:none;stroke:#000000;stroke-linecap:square;stroke-linejoin:miter;stroke-width:0.8;"/>
   </g>
   <g id="text_47">
    <!-- TDT categories -->
    <g transform="translate(118.5925 303.48)scale(0.12 -0.12)">
     <use xlink:href="#DejaVuSans-84"/>
     <use x="61.083984" xlink:href="#DejaVuSans-68"/>
     <use x="138.085938" xlink:href="#DejaVuSans-84"/>
     <use x="199.169922" xlink:href="#DejaVuSans-32"/>
     <use x="230.957031" xlink:href="#DejaVuSans-99"/>
     <use x="285.9375" xlink:href="#DejaVuSans-97"/>
     <use x="347.216797" xlink:href="#DejaVuSans-116"/>
     <use x="386.425781" xlink:href="#DejaVuSans-101"/>
     <use x="447.949219" xlink:href="#DejaVuSans-103"/>
     <use x="511.425781" xlink:href="#DejaVuSans-111"/>
     <use x="572.607422" xlink:href="#DejaVuSans-114"/>
     <use x="613.720703" xlink:href="#DejaVuSans-105"/>
     <use x="641.503906" xlink:href="#DejaVuSans-101"/>
     <use x="703.027344" xlink:href="#DejaVuSans-115"/>
    </g>
   </g>
  </g>
  <g id="axes_4">
   <g id="patch_32">
    <path d="M 330.32 469.65125 
L 562.68 469.65125 
L 562.68 309.48 
L 330.32 309.48 
z
" style="fill:#ffffff;"/>
   </g>
   <g id="patch_33">
    <path clip-path="url(#p965fbb3a4d)" d="M 340.881818 469.65125 
L 365.733155 469.65125 
L 365.733155 326.464889 
L 340.881818 326.464889 
z
" style="fill:#ff7f0e;"/>
   </g>
   <g id="patch_34">
    <path clip-path="url(#p965fbb3a4d)" d="M 371.945989 469.65125 
L 396.797326 469.65125 
L 396.797326 317.107202 
L 371.945989 317.107202 
z
" style="fill:#2ca02c;"/>
   </g>
   <g id="patch_35">
    <path clip-path="url(#p965fbb3a4d)" d="M 403.01016 469.65125 
L 427.861497 469.65125 
L 427.861497 326.705711 
L 403.01016 326.705711 
z
" style="fill:#d62728;"/>
   </g>
   <g id="patch_36">
    <path clip-path="url(#p965fbb3a4d)" d="M 434.074332 469.65125 
L 458.925668 469.65125 
L 458.925668 332.691878 
L 434.074332 332.691878 
z
" style="fill:#9467bd;"/>
   </g>
   <g id="patch_37">
    <path clip-path="url(#p965fbb3a4d)" d="M 465.138503 469.65125 
L 489.98984 469.65125 
L 489.98984 322.130078 
L 465.138503 322.130078 
z
" style="fill:#8c564b;"/>
   </g>
   <g id="patch_38">
    <path clip-path="url(#p965fbb3a4d)" d="M 496.202674 469.65125 
L 521.054011 469.65125 
L 521.054011 319.584237 
L 496.202674 319.584237 
z
" style="fill:#e377c2;"/>
   </g>
   <g id="patch_39">
    <path clip-path="url(#p965fbb3a4d)" d="M 527.266845 469.65125 
L 552.118182 469.65125 
L 552.118182 361.246583 
L 527.266845 361.246583 
z
" style="fill:#7f7f7f;"/>
   </g>
   <g id="matplotlib.axis_7">
    <g id="xtick_22">
     <g id="line2d_42">
      <g>
       <use style="stroke:#000000;stroke-width:0.8;" x="353.307487" xlink:href="#mc64f66ba54" y="469.65125"/>
      </g>
     </g>
     <g id="text_48">
      <!-- BERT multilingual -->
      <g transform="translate(356.066862 565.095)rotate(-90)scale(0.1 -0.1)">
       <use xlink:href="#DejaVuSans-66"/>
       <use x="68.603516" xlink:href="#DejaVuSans-69"/>
       <use x="131.787109" xlink:href="#DejaVuSans-82"/>
       <use x="201.160156" xlink:href="#DejaVuSans-84"/>
       <use x="262.244141" xlink:href="#DejaVuSans-32"/>
       <use x="294.03125" xlink:href="#DejaVuSans-109"/>
       <use x="391.443359" xlink:href="#DejaVuSans-117"/>
       <use x="454.822266" xlink:href="#DejaVuSans-108"/>
       <use x="482.605469" xlink:href="#DejaVuSans-116"/>
       <use x="521.814453" xlink:href="#DejaVuSans-105"/>
       <use x="549.597656" xlink:href="#DejaVuSans-108"/>
       <use x="577.380859" xlink:href="#DejaVuSans-105"/>
       <use x="605.164062" xlink:href="#DejaVuSans-110"/>
       <use x="668.542969" xlink:href="#DejaVuSans-103"/>
       <use x="732.019531" xlink:href="#DejaVuSans-117"/>
       <use x="795.398438" xlink:href="#DejaVuSans-97"/>
       <use x="856.677734" xlink:href="#DejaVuSans-108"/>
      </g>
     </g>
    </g>
    <g id="xtick_23">
     <g id="line2d_43">
      <g>
       <use style="stroke:#000000;stroke-width:0.8;" x="384.371658" xlink:href="#mc64f66ba54" y="469.65125"/>
      </g>
     </g>
     <g id="text_49">
      <!-- BOREP -->
      <g transform="translate(387.131033 510.679375)rotate(-90)scale(0.1 -0.1)">
       <use xlink:href="#DejaVuSans-66"/>
       <use x="68.587891" xlink:href="#DejaVuSans-79"/>
       <use x="147.298828" xlink:href="#DejaVuSans-82"/>
       <use x="216.78125" xlink:href="#DejaVuSans-69"/>
       <use x="279.964844" xlink:href="#DejaVuSans-80"/>
      </g>
     </g>
    </g>
    <g id="xtick_24">
     <g id="line2d_44">
      <g>
       <use style="stroke:#000000;stroke-width:0.8;" x="415.435829" xlink:href="#mc64f66ba54" y="469.65125"/>
      </g>
     </g>
     <g id="text_50">
      <!-- LASER -->
      <g transform="translate(418.195204 508.6825)rotate(-90)scale(0.1 -0.1)">
       <use xlink:href="#DejaVuSans-76"/>
       <use x="55.744141" xlink:href="#DejaVuSans-65"/>
       <use x="124.152344" xlink:href="#DejaVuSans-83"/>
       <use x="187.628906" xlink:href="#DejaVuSans-69"/>
       <use x="250.8125" xlink:href="#DejaVuSans-82"/>
      </g>
     </g>
    </g>
    <g id="xtick_25">
     <g id="line2d_45">
      <g>
       <use style="stroke:#000000;stroke-width:0.8;" x="446.5" xlink:href="#mc64f66ba54" y="469.65125"/>
      </g>
     </g>
     <g id="text_51">
      <!-- Pooled FastText -->
      <g transform="translate(449.259375 556.43875)rotate(-90)scale(0.1 -0.1)">
       <use xlink:href="#DejaVuSans-80"/>
       <use x="60.255859" xlink:href="#DejaVuSans-111"/>
       <use x="121.4375" xlink:href="#DejaVuSans-111"/>
       <use x="182.619141" xlink:href="#DejaVuSans-108"/>
       <use x="210.402344" xlink:href="#DejaVuSans-101"/>
       <use x="271.925781" xlink:href="#DejaVuSans-100"/>
       <use x="335.402344" xlink:href="#DejaVuSans-32"/>
       <use x="367.189453" xlink:href="#DejaVuSans-70"/>
       <use x="424.568359" xlink:href="#DejaVuSans-97"/>
       <use x="485.847656" xlink:href="#DejaVuSans-115"/>
       <use x="537.947266" xlink:href="#DejaVuSans-116"/>
       <use x="577.15625" xlink:href="#DejaVuSans-84"/>
       <use x="637.974609" xlink:href="#DejaVuSans-101"/>
       <use x="699.482422" xlink:href="#DejaVuSans-120"/>
       <use x="758.662109" xlink:href="#DejaVuSans-116"/>
      </g>
     </g>
    </g>
    <g id="xtick_26">
     <g id="line2d_46">
      <g>
       <use style="stroke:#000000;stroke-width:0.8;" x="477.564171" xlink:href="#mc64f66ba54" y="469.65125"/>
      </g>
     </g>
     <g id="text_52">
      <!-- Pooled word2vec -->
      <g transform="translate(480.323546 562.059062)rotate(-90)scale(0.1 -0.1)">
       <use xlink:href="#DejaVuSans-80"/>
       <use x="60.255859" xlink:href="#DejaVuSans-111"/>
       <use x="121.4375" xlink:href="#DejaVuSans-111"/>
       <use x="182.619141" xlink:href="#DejaVuSans-108"/>
       <use x="210.402344" xlink:href="#DejaVuSans-101"/>
       <use x="271.925781" xlink:href="#DejaVuSans-100"/>
       <use x="335.402344" xlink:href="#DejaVuSans-32"/>
       <use x="367.189453" xlink:href="#DejaVuSans-119"/>
       <use x="448.976562" xlink:href="#DejaVuSans-111"/>
       <use x="510.158203" xlink:href="#DejaVuSans-114"/>
       <use x="551.255859" xlink:href="#DejaVuSans-100"/>
       <use x="614.732422" xlink:href="#DejaVuSans-50"/>
       <use x="678.355469" xlink:href="#DejaVuSans-118"/>
       <use x="737.535156" xlink:href="#DejaVuSans-101"/>
       <use x="799.058594" xlink:href="#DejaVuSans-99"/>
      </g>
     </g>
    </g>
    <g id="xtick_27">
     <g id="line2d_47">
      <g>
       <use style="stroke:#000000;stroke-width:0.8;" x="508.628342" xlink:href="#mc64f66ba54" y="469.65125"/>
      </g>
     </g>
     <g id="text_53">
      <!-- SIF -->
      <g transform="translate(511.387717 491.70125)rotate(-90)scale(0.1 -0.1)">
       <use xlink:href="#DejaVuSans-83"/>
       <use x="63.476562" xlink:href="#DejaVuSans-73"/>
       <use x="92.96875" xlink:href="#DejaVuSans-70"/>
      </g>
     </g>
    </g>
    <g id="xtick_28">
     <g id="line2d_48">
      <g>
       <use style="stroke:#000000;stroke-width:0.8;" x="539.692513" xlink:href="#mc64f66ba54" y="469.65125"/>
      </g>
     </g>
     <g id="text_54">
      <!-- TF-IDF -->
      <g transform="translate(542.451888 508.52)rotate(-90)scale(0.1 -0.1)">
       <use xlink:href="#DejaVuSans-84"/>
       <use x="61.083984" xlink:href="#DejaVuSans-70"/>
       <use x="118.603516" xlink:href="#DejaVuSans-45"/>
       <use x="154.6875" xlink:href="#DejaVuSans-73"/>
       <use x="184.179688" xlink:href="#DejaVuSans-68"/>
       <use x="261.181641" xlink:href="#DejaVuSans-70"/>
      </g>
     </g>
    </g>
   </g>
   <g id="matplotlib.axis_8">
    <g id="ytick_21">
     <g id="line2d_49">
      <g>
       <use style="stroke:#000000;stroke-width:0.8;" x="330.32" xlink:href="#m32eb5c9432" y="469.65125"/>
      </g>
     </g>
     <g id="text_55">
      <!-- 0.0 -->
      <g transform="translate(307.416875 473.450469)scale(0.1 -0.1)">
       <use xlink:href="#DejaVuSans-48"/>
       <use x="63.623047" xlink:href="#DejaVuSans-46"/>
       <use x="95.410156" xlink:href="#DejaVuSans-48"/>
      </g>
     </g>
    </g>
    <g id="ytick_22">
     <g id="line2d_50">
      <g>
       <use style="stroke:#000000;stroke-width:0.8;" x="330.32" xlink:href="#m32eb5c9432" y="449.009295"/>
      </g>
     </g>
     <g id="text_56">
      <!-- 0.1 -->
      <g transform="translate(307.416875 452.808514)scale(0.1 -0.1)">
       <use xlink:href="#DejaVuSans-48"/>
       <use x="63.623047" xlink:href="#DejaVuSans-46"/>
       <use x="95.410156" xlink:href="#DejaVuSans-49"/>
      </g>
     </g>
    </g>
    <g id="ytick_23">
     <g id="line2d_51">
      <g>
       <use style="stroke:#000000;stroke-width:0.8;" x="330.32" xlink:href="#m32eb5c9432" y="428.36734"/>
      </g>
     </g>
     <g id="text_57">
      <!-- 0.2 -->
      <g transform="translate(307.416875 432.166559)scale(0.1 -0.1)">
       <use xlink:href="#DejaVuSans-48"/>
       <use x="63.623047" xlink:href="#DejaVuSans-46"/>
       <use x="95.410156" xlink:href="#DejaVuSans-50"/>
      </g>
     </g>
    </g>
    <g id="ytick_24">
     <g id="line2d_52">
      <g>
       <use style="stroke:#000000;stroke-width:0.8;" x="330.32" xlink:href="#m32eb5c9432" y="407.725385"/>
      </g>
     </g>
     <g id="text_58">
      <!-- 0.3 -->
      <g transform="translate(307.416875 411.524604)scale(0.1 -0.1)">
       <use xlink:href="#DejaVuSans-48"/>
       <use x="63.623047" xlink:href="#DejaVuSans-46"/>
       <use x="95.410156" xlink:href="#DejaVuSans-51"/>
      </g>
     </g>
    </g>
    <g id="ytick_25">
     <g id="line2d_53">
      <g>
       <use style="stroke:#000000;stroke-width:0.8;" x="330.32" xlink:href="#m32eb5c9432" y="387.08343"/>
      </g>
     </g>
     <g id="text_59">
      <!-- 0.4 -->
      <g transform="translate(307.416875 390.882649)scale(0.1 -0.1)">
       <use xlink:href="#DejaVuSans-48"/>
       <use x="63.623047" xlink:href="#DejaVuSans-46"/>
       <use x="95.410156" xlink:href="#DejaVuSans-52"/>
      </g>
     </g>
    </g>
    <g id="ytick_26">
     <g id="line2d_54">
      <g>
       <use style="stroke:#000000;stroke-width:0.8;" x="330.32" xlink:href="#m32eb5c9432" y="366.441475"/>
      </g>
     </g>
     <g id="text_60">
      <!-- 0.5 -->
      <g transform="translate(307.416875 370.240694)scale(0.1 -0.1)">
       <use xlink:href="#DejaVuSans-48"/>
       <use x="63.623047" xlink:href="#DejaVuSans-46"/>
       <use x="95.410156" xlink:href="#DejaVuSans-53"/>
      </g>
     </g>
    </g>
    <g id="ytick_27">
     <g id="line2d_55">
      <g>
       <use style="stroke:#000000;stroke-width:0.8;" x="330.32" xlink:href="#m32eb5c9432" y="345.79952"/>
      </g>
     </g>
     <g id="text_61">
      <!-- 0.6 -->
      <g transform="translate(307.416875 349.598739)scale(0.1 -0.1)">
       <use xlink:href="#DejaVuSans-48"/>
       <use x="63.623047" xlink:href="#DejaVuSans-46"/>
       <use x="95.410156" xlink:href="#DejaVuSans-54"/>
      </g>
     </g>
    </g>
    <g id="ytick_28">
     <g id="line2d_56">
      <g>
       <use style="stroke:#000000;stroke-width:0.8;" x="330.32" xlink:href="#m32eb5c9432" y="325.157565"/>
      </g>
     </g>
     <g id="text_62">
      <!-- 0.7 -->
      <defs>
       <path d="M 8.203125 72.90625 
L 55.078125 72.90625 
L 55.078125 68.703125 
L 28.609375 0 
L 18.3125 0 
L 43.21875 64.59375 
L 8.203125 64.59375 
z
" id="DejaVuSans-55"/>
      </defs>
      <g transform="translate(307.416875 328.956784)scale(0.1 -0.1)">
       <use xlink:href="#DejaVuSans-48"/>
       <use x="63.623047" xlink:href="#DejaVuSans-46"/>
       <use x="95.410156" xlink:href="#DejaVuSans-55"/>
      </g>
     </g>
    </g>
    <g id="text_63">
     <!-- Accuracy -->
     <defs>
      <path d="M 32.171875 -5.078125 
Q 28.375 -14.84375 24.75 -17.8125 
Q 21.140625 -20.796875 15.09375 -20.796875 
L 7.90625 -20.796875 
L 7.90625 -13.28125 
L 13.1875 -13.28125 
Q 16.890625 -13.28125 18.9375 -11.515625 
Q 21 -9.765625 23.484375 -3.21875 
L 25.09375 0.875 
L 2.984375 54.6875 
L 12.5 54.6875 
L 29.59375 11.921875 
L 46.6875 54.6875 
L 56.203125 54.6875 
z
" id="DejaVuSans-121"/>
     </defs>
     <g transform="translate(301.337188 412.480469)rotate(-90)scale(0.1 -0.1)">
      <use xlink:href="#DejaVuSans-65"/>
      <use x="68.392578" xlink:href="#DejaVuSans-99"/>
      <use x="123.373047" xlink:href="#DejaVuSans-99"/>
      <use x="178.353516" xlink:href="#DejaVuSans-117"/>
      <use x="241.732422" xlink:href="#DejaVuSans-114"/>
      <use x="282.845703" xlink:href="#DejaVuSans-97"/>
      <use x="344.125" xlink:href="#DejaVuSans-99"/>
      <use x="399.105469" xlink:href="#DejaVuSans-121"/>
     </g>
    </g>
   </g>
   <g id="patch_40">
    <path d="M 330.32 469.65125 
L 330.32 309.48 
" style="fill:none;stroke:#000000;stroke-linecap:square;stroke-linejoin:miter;stroke-width:0.8;"/>
   </g>
   <g id="patch_41">
    <path d="M 330.32 469.65125 
L 562.68 469.65125 
" style="fill:none;stroke:#000000;stroke-linecap:square;stroke-linejoin:miter;stroke-width:0.8;"/>
   </g>
   <g id="text_64">
    <!-- Ylilauta -->
    <defs>
     <path d="M -0.203125 72.90625 
L 10.40625 72.90625 
L 30.609375 42.921875 
L 50.6875 72.90625 
L 61.28125 72.90625 
L 35.5 34.71875 
L 35.5 0 
L 25.59375 0 
L 25.59375 34.71875 
z
" id="DejaVuSans-89"/>
    </defs>
    <g transform="translate(424.32625 303.48)scale(0.12 -0.12)">
     <use xlink:href="#DejaVuSans-89"/>
     <use x="61.083984" xlink:href="#DejaVuSans-108"/>
     <use x="88.867188" xlink:href="#DejaVuSans-105"/>
     <use x="116.650391" xlink:href="#DejaVuSans-108"/>
     <use x="144.433594" xlink:href="#DejaVuSans-97"/>
     <use x="205.712891" xlink:href="#DejaVuSans-117"/>
     <use x="269.091797" xlink:href="#DejaVuSans-116"/>
     <use x="308.300781" xlink:href="#DejaVuSans-97"/>
    </g>
   </g>
  </g>
 </g>
 <defs>
  <clipPath id="p7f2d690017">
   <rect height="160.17125" width="232.36" x="47.72" y="26.88"/>
  </clipPath>
  <clipPath id="p9337ddf0e5">
   <rect height="160.17125" width="232.36" x="330.32" y="26.88"/>
  </clipPath>
  <clipPath id="p10aa367d51">
   <rect height="160.17125" width="232.36" x="47.72" y="309.48"/>
  </clipPath>
  <clipPath id="p965fbb3a4d">
   <rect height="160.17125" width="232.36" x="330.32" y="309.48"/>
  </clipPath>
 </defs>
</svg>
